<mxfile host="app.diagrams.net" modified="2024-02-08T13:39:45.147Z" agent="Mozilla/5.0 (Windows NT 10.0; Win64; x64; rv:122.0) Gecko/20100101 Firefox/122.0" etag="leZRgACRqg96B12qhDbr" version="23.1.1" type="github">
  <diagram name="Page-1" id="GVUWrMnFnrnuC6P8AMcO">
    <mxGraphModel dx="1424" dy="1017" grid="0" gridSize="10" guides="1" tooltips="1" connect="1" arrows="1" fold="1" page="0" pageScale="1" pageWidth="850" pageHeight="1100" math="0" shadow="0">
      <root>
        <mxCell id="0" />
        <mxCell id="1" parent="0" />
        <mxCell id="hTkhz982k4hAJJfi6Dwt-5" value="" style="shape=ext;double=1;rounded=0;whiteSpace=wrap;html=1;fontSize=16;fillColor=#000000;" vertex="1" parent="1">
          <mxGeometry x="-136" y="-15.5" width="784" height="360" as="geometry" />
        </mxCell>
        <mxCell id="hTkhz982k4hAJJfi6Dwt-4" value="" style="endArrow=classic;html=1;rounded=0;fontSize=12;startSize=8;endSize=8;curved=1;" edge="1" parent="1">
          <mxGeometry width="50" height="50" relative="1" as="geometry">
            <mxPoint x="69" y="125" as="sourcePoint" />
            <mxPoint x="414" y="125" as="targetPoint" />
          </mxGeometry>
        </mxCell>
        <mxCell id="hTkhz982k4hAJJfi6Dwt-6" value="" style="shape=image;verticalLabelPosition=bottom;labelBackgroundColor=default;verticalAlign=top;aspect=fixed;imageAspect=0;image=data:image/png,iVBORw0KGgoAAAANSUhEUgAAAgAAAAIACAYAAAD0eNT6AAAABHNCSVQICAgIfAhkiAAAAAlwSFlzAAAOxAAADsQBlSsOGwAAABl0RVh0U29mdHdhcmUAd3d3Lmlua3NjYXBlLm9yZ5vuPBoAACAASURBVHic7N13mJ1V1Tbwe58yM2d675lJMum9EhIgIXSkCqKIBEUBab7AixSRphRF6stHVQFFERBUqvReQkkgIb33mUzvfc7Z3x8zgSTMJHPOs552zv27Lq6A5qy9IDPzrGeXtZXWGkQUm5RSXgBDAZQBSAOQAiC579eUfv65v/8vBKB5kH+17Pb3TQA2A9iitQ6a/K9KRHtRLACIop9SKhvA6L6/Ru3292UA4mxMDQA6AWwAsGbvv7TWdXYmRhTNWAAQRYm+t/kx+ObhvvsDP9PG1IyoQW8xsBZ7FgfrtNY9diZG5HYsAIhcSimlAEwCMB/AYQDmoncaPxa0AvgAwDsA3gbwJZcRiMLDAoDIRZRS49H7wJ8PYB6ALHszcoxGAO+htxh4B8AyzR9uRPvEAoDIwZRSo/DNA38+gFx7M3KNGgDvoq8g0FqvtjcdIudhAUDkIEopP4DvAPgeeqf1C+3NKGpUoLcYeBHA81rrDpvzIbIdCwAiB1BKHQDgLACng9P6ZmsE8CyAxwF8wKUCilUsAIhsopQqBXAmeh/8o2xOJ1ZtBvB3AH/TWq+1ORciS7EAILKQUioVwGkAFqB3176yNyPazafonRV4Wmtda3cyRGZjAUBkMqWUD8BR6H3onwQgYG9GtB/dAF4G8DcAL2mtu2zOh8gULACITKKUKgBwKYAfA8izOR2KTD16lwju0FpvtTsZIkksAIiE9a3tXwngZwDibU6HZHSjtxD4PfcKULRgAUAkpO/M/q/Qu7HPZ3M6ZI4QgGcA3Kq1/sruZIiMYAFAZJBSahKAX6P37L7H5nTIGhrASwBu0Vp/ancyRJFgAUAUIaXULPQ++I8Hd/PHsrfQWwi8Y3ciROFgAUAUJqXUoQCuBXC4zamQsyxEbyHwst2JEA0GCwCiQVJKjQBwP3qP9EUVv8+HpMR4JAYS4Pd54fV64fN6+v3V6/XAt9uvUEAwGEJPMIhgT9+vu/45GERPMLTHr909QbS1d6K1vQPd3VF5o+9SAFdrrV+1OxGifWEBQLQfSql4AFehd4Nfgs3pRMzj8SAxEI+kxAQkBRL2+DXOb8+exe7uHrS2d6C1rWO3XzvR1t6BYDBkS06C/gXgMq31NrsTIeoPCwCifVBKHYHet35XteoNJMQhMz0VaSlJSOp76CfEx0O5aKdCR2dXb0HQ1oH6phbUNTSjo9N1PXlaAfwGwD1a6267kyHaHQsAon4opfIB3AXgh3bnMhi7HvhZ6SnITE9BICE62w+0tXeirqEZdY3NqGtoQnuHawqCFQAu1Fq/b3ciRLuwACDajVLKA+ACALcASLM5nQHteuBnpqcgK4of+PvT3tFbENQ2NKOuoRntHZ12p7Q/fwPwS611ld2JELEAIOqjlJoO4EEAM+3OZW9erwe5WenIzkyL6Qf+/rR3dKGuoQkV1fWoqWuEQ3++NaD3+OhDWmvXb3Qg92IBQDFPKZWC3jf+CwF4bU7na0oBmempKMrLQn5OJrxe9hgKR3d3Dyqq61BeWYv6xha70+nPYgAXaK0/tzsRik0sACimKaUmo7e160i7c9klOSmAorwsFOZlISE+zu50okJ7RxcqqmpRXlmL5tZ2u9PZXQjAH9F7bLDR7mQotrAAoJillDoXwL1wwNG++Dg/CnIzUZSfjdTkRLvTiWrNre0or6xFRVWtkzYRbgTwA631IrsTodjBAoBijlIqCcBD6L20xzZejwe52ekoystGdmYqlJvO6EWJ+sYWbK+oRnlVLUIh238WdgG4Qmt9r92JUGxgAUAxRSk1HsCzAMbYlUOc34dhQ/JRUpgLn88xWw5iWmdnNzZt34ltFdXo6Qnanc5zAM7WWjfYnQhFNxYAFDOUUj9Bb1MfW+bYE+LjMGxIPoYU5HBDn0P19ASxtbwKm7dXorPL1r49mwGczpsGyUwsACjqKaUS0fvg/4kd4wcS4lFWUoCi/Gx4PJzmd4NQSKO8sgYbt+1Ea1uHXWl0o3dz4F12JUDRjQUARTWl1Bj07vKfYPXYSYkJKCspQGFeFtf3Xayyph4bt+5EQ5NtRwlfBPATrXWdXQlQdGIBQFFLKfU9AH8BkGTluCnJiSgrKUB+Tqareu/TvtU3tmD9lnLU1NlyWm8bepcEPrZjcIpOLAAoKimlLgBwHwDLFtvj4vwYWzYEhXlZVg1JNqiubcDK9VvR1m552+EeANcC+IPmD24SwAKAoo5S6nr03sBm0XjAkIJcjBpeDD939ceEUEhj8/adWL+l3I5ri58FcKbW2vEXH5CzsQCgqNF3kc//AbjYqjFTUxIxYeRQpKVauspADtHZ2Y3VG7ehvLLW6qHfAXCy1rrJ6oEperAAoKiglPIDeBzA6VaM5/N5MWpoEUqKcrnBj1Df2IJV67eisbnVymG/BHCs1rrSykEperAAINfr6+z3LwBHWzFeQW4mxo4oQXyc34rhyCW0BrbvrMbajdvR1d1j1bAbAByltd5o1YAUPVgAkKsppbIAvAxgltljJQUSMG5UKbIzUs0eilysuyeI9Zt3YMuOKquuI64EcIzWeokVg1H0YAFArqWUKgbwOoCxZo9VXJCNcSNL4fWwgx8NTn1jC5au2mDVhUNNAE7SWr9rxWAUHVgAkCv1Nfh5DUCJmeN4vR6MH1mKovxsM4ehKNXdE8TyNZuxs9qSHj6dAH6ktf6XFYOR+7EAINdRSo0A8BGAXDPHSUpMwNTxI5CSFDBzGIoB2yuqsXL9ViuODIYAXKS1fsjsgcj9WACQqyil8gB8DGC4meMU5GZi4uhhvLSHxLS2dWDJyg1oammzYrgbtdaW9cIgd2IBQK6hlEoB8B6AqWaN4fEojB1RgpJCUycXKEaFQhprNm7D5u2WnNy7V2t9iRUDkTuxACBXUErFAXgFwGFmjZEYiMfUcSOQmmLLbcEUQ6prG/DV6k1WHBf8jdb6RrMHIXdiAUCO19fh70kA3zdrjLzsdEwaMxw+tvIli3R2dWPpqo2orTe9md9FWusHzB6E3IcFADmeUupeAL8wK35JUS7GjSjlzX1kizUbt2Pj1gozhwih9ybBZ8wchNyHBQA5mlLqVwBuNSv+iKGFGDm0yKzwRIOyZUcVVq3fAhN/HHcB+I7W+i3TRiDXYQFAjqWU+imAR8yKP25kCUqL8swKTxSWypp6LF25EcGQaUcFmwHM11ovNmsAchcWAORISqnjATwHQHxRXimFSWOGoTAvSzo0kSENTS1YvGydmZsDqwEcpLVeZ9YA5B4sAMhxlFIzALwPQLwDj9frwdTxI5CTmSYdmkhEa3sHFn21Fm3tnWYNsRnAHK21qRsPyPlYAJCjKKXS0XvN6VDp2H6fDzMmjUR6arJ0aCJRXV3dWLRsnZnXCy8DMFdr3WDWAOR8bHNGTvMoTHj4x8f7MWvqGD78yRXi4vyYNWUMcrPSzRpiIoAXlVLscx3DWACQYyil/gfAd6Xjxsf7MXvqWPb0J1fxej2YNmEEhhTmmDXEwQCe6uuzQTGIf/DkCH3r/rdLx/X5vJg5cRQCCfHSoYlMp5TChFFDUVZaYNYQJwK4zqzg5GzcA0C2U0qlAfgCwhf8eDwKMyeNRmZ6imRYIlusXLcVW3aYcodACMCRWuu3zQhOzsUZAHKCRyD88FcKmDx2OB/+FDXGjSxBkTlHVz0Anui7aZNiCAsAspVS6iIAp0rHHTuiBPk5mdJhiWw1ccww5GWbsjEwH71FAJ8JMYR/2GQbpdQ0AHdKxx1eUsAOfxSVlFKYMm4EsjJSzQh/OIBrzQhMzsQ9AGQLpVQqetf9yyTjFuVnY9KYYZIhiRwnGAzh06Wr0dgk3icgBOBwrfW70oHJeTgDQHb5I4Qf/jmZaZg4eqhkSHIBrTVa2trR0NSCnp6g3elYwuv1YObEUWYcbfUA+IdSKlc6MDkPZwDIckqpEwC8IBkzNSURB04ZC6+XNW2sqK5twPotFWhqaUUo9M3PsYT4OBTlZ2P4kHz4fOJXSThKZ1c3PvlylRltg98EcLTW2rSbich+LADIUkqpJAArAZRIxfT5vDho+ngkBnjWPxZ0dnbjy5XrUd/Yss/f5/f7MH5kKQpyo3szaHtHJxZ+uQqdnd3Soa/TWt8sHZScg69LZLUbIfjwB4CJo4fx4R8jOru68enS1ft9+ANAd3cPlq7aiIqqOgsys08gIR4HTBoNn1d8tuNGpdQ86aDkHCwAyDJKqUkALpWMWVqUi/ycDMmQ5FBaA4u+WovWto4wPqOxdNVGNDTtv2Bws+SkACbI73/xAniS+wGiFwsAsoRSSgF4GIBPKmZqSiLGlIlOJpCDVdbUo6mlLezPaa2xfnO5CRk5S0FuJkqLxJ/VBQD+TzooOQMLALLKeQAOlArm83kxddwIeDxKKiQ53MatkV9fX13XGFHx4DZjykqQlpIkHfZ0pdTh0kHJfiwAyHR9LUZ/LxlzwqihXPePIa1tHWhsNnbmfcfOGqFsnMvjUZg6vgx+n9hE2y73K6XipIOSvVgAkBXuAiDWv7SkMDfqd3bTnqrrGg3HqKlrEsjE+QIJ8WY0wxoN4HLpoGQvFgBkKqXUEQDOkIqXmpyIsSO47h9rqmsbDMdoaWtHe0eXQDbOl5udjmFD8qXDXquUKpUOSvZhAUCmUUolAHhQKp7X48GU8WVc948xwWAIdY3NIrFqBGYS3GL08GJkpCVLhkwENwRGFRYAZKYrAIyQClZWWoikQIJUOHKJ2oamPTr9GSGxlOAWvRcHlSHOL7of4CSl1PGSAck+LADIFEqpdAiuGSYnBsyY0iQXkHxo1zY0IZa6nybEx2Hy2OFQspNm9yqlxC8hIOuxACCzXAogTSrY+FGlnPqPUdW1cgVAT09wUF0Eo0l2ZhqGlxRIhhwG4BrJgGQPFgAkru/tX6zjX1FeFjLTU6TCkYu0tnWgvUP2optYWgbYZURpEZISRZfPrlBKjZQMSNZjAUBmEHv79/t8GFM2RCIUuZAZD+tY2gi4i8ejMH6k6Ab+eAD3SwYk67EAIFHSb/+jhxcjLs4vFY5cxowCoKmlDZ1d4jfnOV5WRioK87IkQx6plDpNMiBZiwUASRN7+09PTcaQwhyJUORCwVAIdQ0yx//2FouzAAAwpmwI/D7RWwNvUUrxOeJS/IMjMZJv/0opTBjFniOxrK6+GaFQyJTYsbgPAADi4/wYNbxYMuRIAN+XDEjWYQFAksTe/kuLcpGSnCgRilyqus5497+B1NQ3IYZOA+5hSEEu0lNFLwz6dd9tn+QyLABIhOTbv8/nxYihRRKhyMXMfEvv7u4xfLmQWykFjB81FILP7AkATpQKRtZhAUBSxN7+hxbnSa9Tksu0tnegrV32+N/eYnUfANB7p0ZpUa5kyGslg5E1WACQYUqpNAi+/Q8tZse/WGfFw9nMJQY3GDWsGAnxYjf8zlBKHS0VjKzBAoAknAW+/ZMgye5/A2lsbkV3d4/p4ziV1+vBONmbNX8tGYzMxwKAJJwrEYRv/wQAIROP/+1O697NgLEsLycD2ZliHbsPUUrNlQpG5mMBQIYopQ4EMFEiFt/+CQBqG5oRNOn4395i9Tjg7kYOLZQMx1kAF2EBQEbx7Z9EWflQjuWNgLukpyYjKyNVKtxRSqmZUsHIXCwAKGJKqVQAP5CIxbd/2qXGgvX/XTq7utHU0mbZeE5VJntbIE8EuAQLADLiDACGO4rw7Z92aWvvRGt7h6Vjchag956A9NRkqXAnKKVElgXJXCwAyAiR6X++/dMudqzJcx9ArxGlYrMACsDVUsHIPCwAKCJKqWkAphmN4/EolBblCWRE0cCOh3F9Ywt6eoKWj+s0OVnpSJVrv31KX3dQcjAWABSp8ySC5GVnIM7vkwhFLtd7/M/6Y3laa9TaMK4TlcnNAiSAlwQ5HgsACptSKgm96/+GDSngdb/Uq66hGcGgNcf/9sZlgF552ZlISkyQCneWVCAyBwsAisQPAKQYDZIYiJc8fkQuZ+dDmBsBeykleiLgIKVUmVQwkscCgCJxjkSQ4ny+/dM37CwA2ju60NLWbtv4TlKYl4VAQrxUuAVSgUgeCwAKi1KqAMCBAnFQnJ8tkBFFg/aOTrS2WXv8b281ddwHAPR+bw4vETuWu0AJ3jtMslgAULiOQ+8xH0NystIQH+8XSIeigRWX/+w3By4DfK04P0dqc+5wAAdLBCJ5LAAoXMdLBOHmP9qdEx6+dRbeQeB0Ho9CQW6mVDhuBnQoFgA0aEqpBABHGI2TEB+HHLkbyMjlQiFnHMOz6hZCtyjKE1uiO63vZwc5DAsACsd8CLT+LcrPBpcFaZf6RvuO/+3NCUsRTpGWmiR1JDANwEkSgUgWCwAKh8j0Pzf/0e6kpv8TA8YfVjwOuKeivCypUFwGcCAWABQOwwVAclIAiQGxI0YUBSTeurMy0nDWaccZjtPa3oG29k7DcaJFoVwBcLRSij2/HYYFAA1K3+1eJUbj5GaxPTh9Q+r8/WEHz8Qx8w2fTgXAWYDdBRLikZluuOcXAHgh1D2U5LAAoME6QSIIN//R7qrrGkTiHDVvFubMnCzSwMYJJxKcRHAWQORnCMlhAUCDZXj63+/zISNN7M5xigISD1ulFA4/ZCYS4uNw8KwphuPVNjQhFNKG40SLgpxMeDwij4o5PA3gLCwAaL+UUtkAZhmNk52Zyt3/9LVQSKO23vjxvykTRiE7s3dp6ci5BxiOFwyGUN/I44C7+Hxe5GWLLN3FA5gjEYhksACgwfgOBL5WuP5Pu5M6/nfU3G9q0yMOMV4AAFwG2JvgMsB8qUBkHAsAGox5RgMoxfV/2pPUQ/bIed8UACOGDUFpsfHb7LgRcE85mWlSrYEPkwhCMlgA0GDMMBogPTUZfpkfIBQlJAqAjLRUTJ80do//TWIZoLm1HR2dXYbjRAulFPJzRFoDz1RKGW4mRjJYANA+KaUCAMYZjZPD6X/aTUdnF1paJY7/zYDXu+ePsSMECgCAswB7y8pIlQjjB3CIRCAyjgUA7c8UAIZf3XM5/U+7kWq529/b/rzZ0xDnN37TJPcB7EmoHwDAZQDHYAFA+2N4+j8uzo+U5ESJXChKyB3/+3YBkJQYwIHTJxiOX1vfBK15HHCXOL9P6vuYGwEdggUA7Y/hAiAthQ9/+obWMsf/Jo0dgbwB1qUllgG6e4JoaGo1HCeaZMnMAkxTSnFN0AFYAND+CBQA3PND36hvbEFPMGg4zu67//fG44DmyEwX2QfgATBXIhAZwwKABqSUSgYwxmgcFgC0O7Hjf3MHLgAmjClDQa7xWye5EXBPmekpEOrlxX0ADsACgPZlGgS+RlgA0O6qa433/09LTcbMqfs+nCKxDNDY3Iqu7h7DcaKF3+dFarLI9zP3ATgACwDaF8PT//HxfsTHGd+RTdGho7MLzQLH/+bPmQ6f17vP38PjgOYQOg0wsa/FONmIBQDtC9f/SZQZ3f8GMn/O9G/1CIgE9wHsKUtmH4ACMFkiEEWOBQDtCwsAEiX1MB3M2316WgpmTDbcw4ozAHvJSE+WutRrtEQQihwLAOqXUioFwAijcdJk1gspCkgd/wtng5/EMkBXdw8am3kccBef1ytV2LMAsBkLABpIKXqn6QxhDwDapb6xBT09Asf/9rH7/1u/V+g4IGcB9iS0D8DwCSMyhgUADWSI0QAJ8XGI4wZA6mPl+v8uUyaMQlaG8TbU3Aewp1SZjoCcAbAZCwAaiOECQOiHBEUJiYdoSnISZk0bP+jf7/F4cNjBMw2P29DUim6B2YtokRRIkAhT0nfZGNmEBQANpMRogIT4OIk8KAp0dnajuaXNcJxD50yD3xfe3VQS1wNL7V+IFkmJIgWAAjBKIhBFhgUADURkCYAIsKb730AOP2SmyK716jrjDYyihdfrQXy8yPIe9wHYiAUADcR4AZDAAoB6ST08I9nVn5OVgUnjRhoeu6aOMwC7Sw6IzN5zH4CNWADQQASWALgBkOSmz8eOHIrigtyIPiuxDCDVxTBaCC0DsACwEQsA+hbVO19abDQOlwAIkNtAF87u/72xLbA8oQKASwA2YgFA/ckBEG80CAsAAmQu/wEiW//f5YCp45Eq0LyGxwG/IXQSgJsAbcQCgPpjeP3f7/fB6+GXFwE7a+oNx0hKDGD2jIkRf97n9eLQ2dMN51Hf2IxgMGQ4TjQQmgFIVkoZnm2kyPAnNPWHRwBJRFNLG1rbOgzHmTd7GuL8xvaUSCwDhEIatQ3cDAgAgYQ4eDy8E8DNWABQf3gEkERUVNWJxDGy/r+L1D4ALgP0UkohMUFkFmCoRBAKHwsA6k+B0QABFgAEoKKqViTOUQbW/3cpLsjFmBFDDcfhRsBvCC0DiFwsQOFjAUD9MbwBUKhJCLlYQ1ML2ju6DMeZMKYMQ4ryBDKSmQVoa+8UWdaIBgGZXh8sAGzCAoD6Y7gA4AZA2lpeLRLne8cfLhIHkFlKADgLsIvP55UIwwLAJvwpTf0xXNYLbQ4il2pubUd5ZY3hOEopnCZYAMyZMQkBgeNrlUJHG93O52UB4GYsAKg/xgsAxS+tWLZ243ZobTzOAVPHi03/A0B8nB9zZ00xHKeuoRld3T0CGbkbCwB3409p6o/hAkDi8hVyp7qGZlQJvSFLvv3vYqSh0C5aa1RWG+9v4HZer8gjhAWATVgAUH+4BEARW7Nxm0gcr9eD737nUJFYu5M6DlhRLXPE0c04A+BuLACoP5wBoIhsK69GQ1OrSKx5s6cjJytDJNbuhpcWYcQww60uUNfQHPOnATgD4G4sAKg/nAGgsDU2t2Ll+i1i8U47QX76f5dTjj3UcAytNdZu2mE8GRfjKQB3YwFA/TF8DNDDGYCY0tXdgy9XrEcoJLDzD0BGWipOOnquSKz+nHLcYSJxdlbXoam5TSSWGwnNACRLBKHwsQCg/nAJgAZNa2Dpyg0iTX92ufKiBUhOShSLt7dxo4aJdAUEgDWbtovEcSPuAXA3FgDUH4ElAH5pxYo1G7ehpl7ugpySonyce+bJYvEGcspx80Xi1NQ1YluFTNMjt/HKFADJim8MtuBPaeoPZwBoUFau34pN23aKxrzh8nMM3/w3GKcKLQMAwMp1W9DYLLP50U18MksAHgDmTffQgFgAUH8Mf11oiS4w5FhaayxdtRFbtleKxp0yYZRo6999GTlsCCaOKROJFQppfLliPbpjrDmQUkpqto/LADZgAUD9MdzovLsntn4QxpJgKITFy9ejvFLmpr/d3XTl+ZbOHv38rFPEYrV3dOGLFevREwyKxXQDoT8un0gUCgsLAOqP4RZn3d2x9UMwVrS1d+KzJWtQbUIv/CPnzcK82dPE4+7Lj045FqPLSsXi1TU047Mla2KqTbDQyY/YbqhgExYA1B/jBQBnAKKK1sDm7ZX4cNFyNDS1iMf3eb347RU/F4+7P16vBzf+8jzRmI3Nrfjky1Xo6JQ7FeFUWmup5T4WADZgAUD9MdzjtLuHMwDRoqW1HZ98uRKr1m9FMBgyZYybrjof40cPNyX2/hx3xEGYNW2CaMzWtg58vHglqmqi+9ZAqb4PYAFgCxYA1B+BJQDOALhdZ1c31mzcjo8WrxBr79uf7x1/GC46+zTT4g+GGbMPnV3dWLx8HZau2hi13w+hkEhBGNRaR+d/IIfjxgvqD5cAYlhzSxs2ba9ERVWt5Btev8aNGob7br3S1DEGY/aMiTj2sDl45e2PxWOXV9aipr4JI4cWoig/G94o6pERlCkA+PZvExYA1B+BAoBLAG7S0xNEbUMTtuyoQq1gU599SU1JwhP334TEQIIl4+3P7399MT76fCmaTDjP39XVjRVrt2Ddph0oKcpFaWEu4uLM73VgNm4AdDcWANQfzgBEuWAohIbGFtTWN6G2oQmNzW2W9m5QSuGPt1+DsqHFlo25P8NKCvHQbb/CGRdea9oYXd09WL+5HBu37kRWRiqy0lOQlZGK1GR39sERWgJgAWATFgDUH8v3AJRX1sbc+WkraK3R1dWDzu5udHX1oKvv1/bOTtOn9/fligvOxHcOP8i28Qdy/JEH49Jzf4h7/vSkqeOEQiFU1zZ8fZzS7/chJSmA+Dg/4vx+xMf54Pf5AJNbIpQU5hr6PJcA3I0FAPXH8iWAtZu2i14mQ8512glH4JpLzrY7jQHdcPm5WLR0JT78bKllY3Z396Cuodmy8XYxWgBwCcDdomc3CkkyXAD09ATBbsC0t/MWfBd/vvPXjr4syuv14LF7bkBeTqbdqTie0FIfCwCbOPe7kOxkuADQWqO9o1MiF4oS11xyNu64/hJXXBSVl5OJv957IwIJ8Xan4midXd0SYQy3HqfIsACgb9FatwNoMxqnpa1dIBtyO4/Hg7t+cxmuvvjHdqcSljkzJuFfj/wByUnu3KBnhS6ZAqBCIgiFjwUADWSt0QCtbZzZi3Vxfj8evfs6nHPGSXanEpGDD5iMlx6/CxlpqXan4kgdLABcjQUADWSV0QAtrZwBiGVJiQE886ff4ZTvzLc7FUOmTRqDV/7xf9wT0A+hJQAWADZhAUADMV4AcAYgZh18wGR8/OIjmH/QDLtTETFu1DC8/tR9GFKUZ3cqjtLZyQLAzVgA0EAMFwCt3AMQc5KTEnHXby7Dy3+/B8NKCu1OR9SwkkK88fT9ll9Z7GScAXA3FgA0EMMFQHdPUOoHBLnAEXMPwGf/fQznnHGSK3b6R6IwLxsv/PVO3HH9JQg4pIWxnbgJ0N1YANBA1gEw3JqPJwGiX3paCh667Wr8+5E/oLgw+qfIlVI4b8F3sfDFR8SvEXaTnp6gVCfAnRJBKHwsAKhfWusuABuNxmlt5T6AaBUf58eZpx6Lz1/5K8445Ri707Hc8NIivPbkvbjpqvMRHwUX+4RLaHavXWvNPgA2YStg2pdVAEYaCcAZgOiTnZmOc844Cef86GTkZmfYnY6t6DjJpgAAIABJREFUPB4PLjnndJx8zDzc++en8fd/vRIzDbDa2kX+PTn9byPOANC+8CQAfW3cqGG479YrsPL9f+KaS86O+Yf/7kqLC3DnjZdixXtP46qLzoqJvgFCxT0LABtxBoD2xXAB0NxiuKEg2cjn9eKwQ2biorNPw/w50+1Ox/GyM9Px60t/ist+fgb++s+XcN9jz2Dbjkq70zKFUHG/SSIIRYYFAO2L4QKgq7sHzS1tSHHpfeexxuPxYOLYEZg3eyrmzpqKOTMnsRVuBBIDCbjgx9/D+WediiXL1+KNDz7Dm+9/ikVLVkXNtddCjb4M/4yhyLEAoH1ZLRGktqGZBYBDeTwejBlRirkHTsPcA6fi4AMmIz0txe60ooZSClMnjsbUiaNx5YUL0NTcinc+Xow33/8UH33+FXZUVLl2z4BQq2+RnzEUGaV5Zyvtg1JqG4BiIzFys9IxfeK+9xKuXLcFXd0DXy3a3tGFhqYWI2kgOzM95pq4+HxeZGWkISsjDdmZ6cjK3O3vM9KQkZYKr5dbgexU39iE8p01qKiswY6d1SivrMbzr76HlWuNzY6nJCciOXHfvQqmjCuLKHZnVzfe/nhJRJ/dyzitNWcBbMIZANqfDwD80EiAusZmaK332Rxm3MjSfcaoqKrDkpXGCoAxI0rx2D3XG4pBJC0jLRUZaakYP3r41/9bZVWd4QKgMDcTw0sKjKbXL6ENgD0A1ksEosiw9Kf9ectogJ6eIBqbuRmQKFoI9ffYoLVmq1AbsQCg/XlbIkhtQ5NEGCJyAKEZAE7924wFAO2T1noTgM1G49TWswAgihZCRwBZANiMBQANhuFZgIbGFoRC3HBK5HZaA41NrRKheALAZiwAaDAMFwDBUMjwLn4isl9La5tULwPOANiMBQANBvcBEBEAoF6mkNfgDIDtWADQfmmtKyDwzcp9AETuV98oUgCs1Vo3SwSiyLEAoMEyfBywoakV3fto9kNEzie0lPexRBAyhgUADZbhZQCtNapqGyRyISIbdHZ1S10DvFAiCBnDAoAG610AIaNBKlkAELmW4EZezgA4AAsAGhStdR2ApUbj1NQ18jggkUsJrf83AFgpEYiMYQFA4TC8DyAYDHEzIJFLCRUAn2reQucILAAoHC9JBKmsrZcIQ0QWCgZDaGoRaQDE6X+HYAFA4fgQQJ3RIFU13AdA5DY19U1Sy3csAByCBQANmtY6COBlo3E6u7qlWokSkUWq60QK9xCATyUCkXEsAChcz0sE4TIAkbtU1zZKhFnOBkDOwQKAwvUaAMMHgSu5DEDkGs0tbejo7JII9aFEEJLBAoDCorVugUBToJbWdqmGIlGnvb0DO6trpS5cIQA9wSAqq+vQKnOPfcyprhN5+weAV6QCkXE+uxMgV3oewLFGg1TVNmBocZ5AOu4VDIbw8aKv8PKbH+LtDxdhe0UVWlrbAAAejwfZmWkYXlqEI+fOwjGHzcHEMWU2Z+wOGzZvx0tvfoiX3/wQ6zdtR219I3adPEtJTkJRfg4OmTUFxx42B4ccOBXxcX6bM3Y2oQ6eHRC6WIxksACgSLwI4EEAykiQypr6mC0AQqEQnnruddx8z6PYXlE14O+pqqlHVU09Plm8HDfd/Qgmjx+FW66+AHMPnGpxxu6wZPla3HD7w3jn48UD/p7mllasXt+K1es3409PPIfM9FRcdfFZ+NkZJyHOz0Jgb909PWiQ2bT7tta6TSIQyeASAIVNa10O4HOjceobW2LycqAVazbioBPPwflX/X7Ah/9Alq5Yi+MXXIbTz/81auvFpmVdr629A+f+8hbMO+Xn+3z496euoQlX3XwfZhz9Y3z0ueFml1Gnpq4JQn17DJ8gIlksAChSLxgNoLVGldzaoiu88vbHOOL7F2HFmo2G4vz3rY8w77s/NxwnGuzYWY2jfnAxnn7+DUMPqs3bynHiWZfjL0+L9LuKGtVy93ewAHAYFgAUKZHjgFU1sXMc8Onn38APL7hWbCPa1h07cfhpF+LLZWtE4rnR9vJKHHbqBfhq1XqReN09Pfifa+/AHQ/+XSSe2wVDIakTO8u11lskApEcFgAUEa31cgCGXz+rY+RyoM+XrMTF1/wBoZDhCxX30NbegR9e8GtUVhtu0Og6rW3t+P7Pr0FFVY147JvufgTPv/a+eFy3qappkDqNwrd/B2IBQEYYngUIBkOobYjuy4EaGptxxoXXorOr25T45ZU1OOt/bpBap3WNi371ByxfvcGU2FprnHfFrVi3aZsp8d1iR6VYccV1FQdiAUBGyHQFjPJlgLse/ofpb+gLFy3Dv//7jqljOMmnXyw3/d+3vb0DN9z+sKljOFlnVzdq6kSK8zoACyUCkSwWAGSEzOVAcpuMHGfHzmo89Pi/LBnrt3f9Gd09sXGq4nqLHswvvfEhPv1iuSVjOU1FVZ3UrNKrffeIkMOwAKCIiV0O1NmNxubovBzo8X++LNVCdb82bS3Ha+98YslYdvpq1XosXLTMsvEeevzflo3lJILT/89KBSJZLADIKKFlgOicBXjpjQ+sHe/N6G+1/vIb1v47vvbuJ+jqNmf/hlO1tLajqVmkZ089uAHQsVgAkFEilwNF43HArTt2YplJm9QG8spbH4ufNHCaly0uclpa2/DBJ0ssHdNuOyprpUI9o7W2ZgqMwsYCgAyRuhyoubUd7R3RdTnQ6nWbI/pcICEes2dMhMcT/rdnfWMTKmui+0jgmg2RHSefMXks0tNSIvrs6vWbI/qcW5XLFQB/kwpE8lgAkAQuA/SjPII11HGjhmH1h8/gtSf/H5a+9QSSEgNhx6jYKX8u3ikam1rCPk6plMLbzz6It599EGs+fBbHzJ8d9rjROEM1kOraBql9K5sBfCQRiMzBAoAkvAjA8HbhqigrAHZWh/8W9dPTT0RGWioAoLS4AKced5gl47pFVW34D+J5s6dixuSxAHpnVy74yffCHzfKZ1V2t2l7pVSoJ3SsNadwGRYAZJjU5UB1jc1RdYwtkBAf9me+WP5NW1+tNZYsD7/NbyTjukVCXFzYn1m5dhPa2ju+/ufPl6wMf9z48Md1o5bWdtTWizXmYj9lh+N1wCTlBQAHGAmgtUZ1bSMK87KEUrJXYV522J95+vnXUVPXgCnjRuK9T76MqMd9fm7447pFbk5m2J+pqqnH/FPPx7GHzcGmreV45e2PLRnXjTbLvf0v0lqvlgpG5mABQFKeB3Cz0SCVNQ1RUwAU5OWE/ZlgMITX3/0Er78b+Xn+ovzwx3WL+Dg/0tNS0NDYHNbnVq3bjFURbsoEgPyc6Pia3Jfu7h7JzX98+3cBLgGQCKnLgWqi6HKg6RNHWz4dP2FMGVJTkiwd02pzZkyyfsyZ1o9pta0V1QjKHCENAnhKIhCZiwUASTJ8GqAnGIyay4ECgQTMP2iGpWMef8TBlo5nh+OPtPbfccSwIRhdVmrpmFbTWmPrjiqpcP/VWoutJZB5WACQJJHjgNF0GuDkY+ZZOt6JR8+1dDw7HHvYHMTH+S0bz+o/QzvsrK6XbFl9j1QgMhcLAJLEy4H28r0TDseIYUMsGeuEow7BhDFlloxlp6yMNJzzo5MtGSslOQkXnX2aJWPZadP2nVKhlmmtDTcGI2uwACAxUpcDdXR2Rc3lQD6vFzdcfq4l49z4y/NMH8cprrhwgSV7HS4993RkZaSZPo6dahua0Ngk9v3Gt38XYQFA0kzpCqiU8Zh2bS486ei5OOGoQ0wd44qLFmCkRTMNTpCZnorbr/sfU8eYMmEULv7p900dYyAhbXwznhrkN826TTsMj9WnGsA/pIKR+VgAkDSZy4H2Wgbwer1GQ6K1rd1wjEj98fZrMH70cFNin3jUXFx98Y9Nie1kP/zu0bjknNNNiZ2fk4WnHrrVtqZKLa3Gv1Z9vv1/z1TXNaK+scXwWH0e0lp37P+3kVOwACBRYpcDtbTtcTmQT6AAaG4Vud40IkmJATz98K3i+wHmzZ6GP95xzaDf9qLNb644D2eccoxozNzsDDzzp99F1MhJSovA1+pgvmcE3/67ADwgFYyswQKAzCC+DDCYt5n9kfihakRJUT7e/ddDOGKuoYaJXztvwXfxn8duR2IgQSSeG3k8Hjx029X47ZU/j+j2xL1NHjcS7/77YUweP0ogu8hJfK369/M9U1lTL7nX5mmttdhOQrIGCwAyg8zlQLstA/i8xr9UmwWmVY1KTUnCs3/6Pe64/hJkZ6ZHFGPEsCH4xwM3447rLxGZGYkGl577Q7z897sxfdLYiD6fGEjAVRedhdef+n8oLsgVzi58El+rft++G72u21xueIzdcPOfC7EVMInTWpcrpT6HwbsB6hp6Lwfy+3wiD7r29g6EQiGRN0UjPB4PzlvwXZxxytG477Fn8MwLb2Ldpm37/IxSCtMmjsGC047FWacdxwd/Pw6aORnv/OtBPP/a+/jzE8/ho8+WoicY3OdnivJzcNIx83DZeWcgz0H9/kWWAPYxA1BRVYfmFrEZsQ+01l9IBSPrKN7WSGZQSv0aAncDTB47HIV5WdBa49X3FhnOa/sXLzuyVe66Tdvw9gefY3tFFSpr6tDU3IqsjDTk5WRi6JACHDlvFgqi+JIfM9Q3NuH1dz/F+k3bUFlTh+raegQSEpCXk4mC3GwcMmsKpk4cbXea/Ro55xRUVhtrqXHYnCn9NkzSWuODz5ejtU1sv95JWusXpIKRdTgDQGYRuRyoqrb3ciClFDweZfgoX0tbuyMLgJHDhsTUMT4rZKSl4gcnHWl3GhGROAUw0BJAeWWt5MN/ER/+7sU9AGQKqcuBqmu/uRxIYtrb7o2ARPsTCoXQ1m7sAe3xeODxfPtkSCgUwrrNYjv/AeA6yWBkLRYAZCaRy4Hq+i4HkjgJYHRalchsVbX1MLo0O9AJgM3bK9HeIdbz/yOt9atSwch6LADITDLHAftOA+xvV/NgrNu01XAMIjOt3WD8a7S/YrmruwcbtlYYjr2bayWDkfVYAJCZZC4H6usHkBgw3pVt3cZ977Ynstv+ToQMRn8zAOs370BPz75PRYThba31u1LByB4sAMg00pcDSTS8kfjhSmQmiRmAhPg9i+XWtg5sLa82HHc3fPuPAiwAyGwiywBVtQ1ISjReAKxnAUAOt3bjFsMxUpIDe/zzmo3bDO8r2M1/tdYLpYKRfVgAkNlELgeqrGlAksAMwJbtFejq7jYch8gsEstUKUnfFAB1Dc3ful3ToOslg5F9WACQqSQvB+rvWFO4gsEQNm0VbYFKJKa9oxPbyisNx0lJSvz671dvEJ31+o/WerFkQLIPCwCygsgyQH1jM+L8AicBuBGQHGr95u2Gp+q9Xs/XG2bLK2slL/wJgmv/UYUFAFlB5HKgyhqZfQBrNhhfYyUyw5r1mw3HSO6b/g+FQli7abvheLt5RGu9UjIg2YsFAJlOa10O4HOjceoamhHn/3Zv83B99PlSwzGIzPDRZ8a/NndN/ws3/WkB1/6jDgsAsorhfuFaa8MtUgFg4aJl6O7pMRyHSNr7n3xpOEZKUsCMpj+3aa2Nb04gR2EBQFYR2QfQKlAAtLa144uvVgtkQySnoqpGpE9FSlJAuunPDgB3SQUj52ABQJaQuhzI6G2Au0i8aRFJ+kDoa9Lj8Yg3/dFa8xatKMQCgKwkMgsggQUAOc17C41/TcbH+bFpW4Vk05+lAB6XCkbOwgKArOSYAuDTL5ajs4sNgcg5JIrSYCgk3fTnl1rrkGRAcg4WAGQlkcuBJHR0duGzL1fYnQYRAGDrjp3Yst34pj3BdX8AeEVr/aZkQHIWFgBkGanLgaS8v/ALu1MgAgC857yvxSCAK+xOgszFAoCs5phlgH//9x27UyACAPzrZcd9LT6qteYUWZRjAUBWE7kcSMK6TduwaOkqu9OgGFdRVYP3FjqqvT6b/sQIFgBkKanLgaQ89dzrdqdAMe6ZF95CMOiofXa3a6132p0EmY8FANnBMcsAz770Fq8HJls9+dxrdqewu3IAd9idBFmDBQDZQeRyIAl1DU14/d1P7U6DYtRXq9ZjxRrD/bEkXcemP7GDBQBZTupyICkOewOjGPLkfxz1tfcVgL/YnQRZhwUA2cXw5UBSXnvnE9Q3NtmdBsWYYDCEZ1501DH7K9j0J7awACC7OGYfQFd3N5554S2706AY88b7n6Kqpt7uNHZ5TWvNHbExRgn2jCYHU0opAFkACgEU9P1aCCDFxrQuAxBn4/hfKynKx5K3noDP67U7lbDd/sDf0NLaPujfn5KciF9ecKaJGUXuL0+/hE1by8P6zHX/+zNX/rkd/cNfYOGiZXanAQAhAJP7LuyiGMICIEoppVIAHAvgZAAHAciHQx62TvXQbVfjjFOOsTuNsB1w7E+wev3mQf/++Dg/qle8YV5CBhx43NlYuXbToH9/IJCAyq9eNTEjc3z42VJ850eX2J3GLn/WWp9rdxJkPS4BRBGlVL5S6jyl1H8BVAN4GsAPAZSAD//9uvOhJxAKuW8JtCAvO6zf39nV7dg9D+WVNWH9/sIw/92d4vb7HXPBXivY9CdmsQCIAkqpqUqpV9B7hvdh9L75x9ublfus27QN/3nlXbvTCFu4BQAA7KxyxJ1Me2jv6ERDY3NYnynIzTIpG/MsWroK73zsmM5/t2utjd9CRK7EAsDFlFLDlVL/ALAYwDEAlM0pud6dDz0heZe6JSJ5CG7cssOETIxZv3l72J/Jz3XfDMDtD/zN7hR2qQCb/sQ0FgAupJTKVUr9PwCr0TvFzwe/kOWrN+CVtz+2O42wFETwEHTiv2MkOUUy+2GnZc76+rpOa91qdxJkHxYALqOUOhvABgAXA/DbnI5jxPl96D3oYNztD/xdJI5V8vPCnwH471sfOW6/w0tvfBD2Z9y2BHCHc97+lwF4zO4kyF4sAFxCKeVRSt0B4FEAyXbn4zQ9wRAKcjNFYi3+apWr9gLMnDIu7OKnpq4Bn3zhnFNf2yuqsGT52rA/d8DU8SZkY45FS1fhuVffszuNXdj0h1gAuEHfkb4XAFxudy5OFQrJFQAA8Ktb7kNLqztaohfkZmPaxDFhf+7+x54xIZvIPPCXZ8P+TE5WBmZMHmtCNvJCoRAuu+Fup+wveV1r7agexGQPFgAOp5QaBmAhgOPszsXpUpMTkZedLhKrvLIGt977F5FYVjj+yIPD/syLr3+ATxbbPwuwvbwSf/r7f8L+3DHzZ8PjccePsEeefAFLV4Q/w2GCEIAr7E6CnMEd3z0xSik1BcBnANwzz2mT+Dg/EuLjMLykUCzmQ3/9l9NuahtQJAUAAFx724PCmYTvpnseRWdX+FcyH3fEQSZkI6+6th6/vevPdqexy1+01l/ZnQQ5AwsAh1JK5aF32t9d25xtkpaSBABIT01CVkaqSMyeYBCX3XCXU6Zt92l0WSnKhhaH/bnPvlyBP0bw9i3l7Q8/x9PPh9+VMJAQj/lzppuQkbzr/vAwGpta7E4DANoAXGd3EuQcLAAcSCkVD+A/AIbYnYtb5GVnfP33ZSUFYnE/WbwcT/zbHa1mjz8islmAq2++D+9/8qVwNvu3duNWnPU/N0Z0GuHQOdMRCCSYkJWshYuWOenK3zv6ruImAsACwKn+CGC23Um4RVZGKooLsvf45/TUJLH41932kGNb5+7u3DNPRpw//JOhPcEgzvrFDdi8zbpnQ31jE75/3q/Q1BzZMfSLzj5NOCN5wWAIl//mHqfMIO0E8Ae7kyBnYQHgMEqpKwCcZXcebuHzejFx9LBv/e9jR5SIjVFb34jLrr9bLJ5ZSoryce6ZJ0f02bqGJnznzMvw1ar1wll92/byShx35mURdyM8+tADMffAqcJZybvtvr9i+eoNdqexy/Vs+kN7YwHgIEqpwwH83u483CI5KYBZU8YgkPDte47SU5NRGEGDnIH8+7/v4NGnXhCLZ5YrLlyA1JTIZj+2l1fiqB9cjOdfe184q298+sVyzDvl/IgfjF6vB7+98nzhrOS9+/EX+INzmv4sR2//EKI9eG+88Ua7cyD0NvoB8DyAPLtzcTqv14NhQ/IxZVwZEvp5+O+SnpqEbRXVYlOw7368GMceNge52XL9BqQFEuIBKLwb4WUz3T09eO6Vd9HU3IqZk8chIV7mEsnOrm7c/9gzOP/K36GpJfIX0bNO+w7OOs3ZJ2Irq+tw8tmXo6W13e5Udvmx1nqd3UmQ8yiHrE/FPKXUT2BBa864OD8SE+IQHxeHhHg/vF6v2UOKUApISgwgLTkRSYkJg+58t2FLOdZukrv4ZuSwIXj/uT8iKTEgFlNae0cnph7xo7Cv1t1bRloqrrxoQcR7C4DeBjhPP/8GbrrnUWwvrzSUT2IgAUveegL5Oc5t/xsKhXDijy+3ZVPlAN7QWh9ldxLkTCwAHEAplQBgLUza9Z+cGEBeTgbystO/Pi4XK0KhEN7/bDnaOzrFYv7gpCPxpzt+LRbPDM+/9j4WXCxzzXtRfg5OOmYejj/yEMyePhFe775XDrXW+HLZGrz05od47tX3sH7TNpE8bv3Vhbj4p98XiWWW3937F/zu//3F7jR2CQGYprVeanci5EwsABygb+Of+A7dxEA8Rg8vRn6Oc6esrbCzuh5frpDd3PbA76/CmaceKxpT2k13PyJ+9WxWRhpmTZuAgtws5OVmIT8nC16vBzuralFZXYedVbVY/NUq7NhZLTru9088En++09lF13sLv8BJP/mlky5Zekxr/VO7kyDnYgFgM6VUBnpv98vY3+8NIyZGDy/G0OI8sRvy3O6zJWtQ2yB3lC8QSMDbzzyA8aOHi8WUprXGGRdei5ff/MjuVAyZPmksXvnH/4ntRzBDRVUNDjnpXFTV1Nudyi5tAEZpreXWvyjq8BSA/S6C4MPf7/dh5uRRGDYknw//3UwYPXS/U9fhaG/vwKk/u9LwuraZlFL4853XOrpI2Z+C3Gz848GbHP3wb2xqwSk/vdJJD38AuJ0Pf9ofFgD2O0UqUCAhDnOmjUNWukwr3GiSGIjH2DK53gBA74VBJ599BeoEZxakJSUG8NRDtyArI83uVMKWEB+HJx+8GQW5zu2G3dHZhR/8/Bqn3RnxMYCb7U6CnI8FgI2UUqUARDqaeL0eTJ8wEomBeIlwUWlIYQ5ysmQfhGs3bsX3zrkKbe0donEllRYX4IXH70JxoXtOmKanpeCff/w9pk0K/5pjqwSDIZx96W/w8SJH3a2zDsAPtNY9didCzscCwF4nSQWaPHY4UpITpcJFrYmjh8Hv94nGXLR0FRb84gb0BIOicSVNHFOG9/79EGbPmGh3Kvs1angJ3nn2QRw6Z5rdqezTpdff6bT9Fc8CmKG13m53IuQOLADsFVnf1r0MKcjZ4zIcGlh8nB8TRpWKx33jvU9x4dW3OaXve79ysjLw4uN3ObqRzuGHzMTbzz4Y0c2GVrrp7kfw13++bHcaXQDWAHgEvcf9TtNaO3c9ihyHpwBsopTKBFAJwNDrqNfjwdxZEx29ScqJlq7aiPLKWvG4F519Gn53zUXicaU9+Ndncc3vHkAw6Jgja7jwJ9/DLVdfKLpZ0wwP/vVZXHXzfWaEfgnAgkH+Xg2gWWvtnD9Ach0WADZRSp0JwPAh7eElBRg93NlvS07U3dODjxatQHtHl3jsn/zgeNz9m/91/INsxZqNuOGOP+L1dz+xNY9pk8bgpivPxyGzptiax2Dcdv/juOUeU9rqrwVwgNa60YzgRP1hAWATpdTNAAx3Njn0wMn9XoZD+9fU0oZPvlxlylvw8UcejEfvvt4VMzMffrYU1932EBZ/tcrSccuGFuP6/z0H3z32UEvHjUQoFMIVv70Xf3riOTPCNwGYpbVebUZwooGwALCJUuoRAIa6dKWmJOKg6eOFMopNFVV1WLLSnCtbD5o5GU8/fGvEt/NZ7blX38Nv7/qzWOvegeTlZOLKi87C2aefAJ8L7qLo6u7GuZffgv+88q4Z4TWAk7XWzr9qkqIOCwCbKKVeAXCMkRijhhWhrLRQKKPYtXbTDmzYUm5K7AljyvDvR//g6Atsdrd7H/+X3vgQq9dvFolbXJiH4444CMcfcTAOOmCyKx78ANDc0oozLrwO7y38wqwhbtBa/9as4ET7wgLAJkqpJQAmG4kxa8oYZKanCGUU2xYvW4eq2gZTYpcU5eO5x27HiGGm3PVkqvWbtuGlNz/Eq28vxMYtO1BVW7/fXvdKKWRlpKGkOB9HHnIAjj/yYEweP8qijOVU1dTj1J9diaUrTbtJ9zkAp2j+ECabsACwiVKqCkCOkRhzZ01EUiBBKKPY1hMMYuEXq0y7wz0rIw1/uuPXOGLuAabEt0owGEJlTR12VtagoqoWFVU1CAVDyM/LQkFuNgpys5Cbkxnx9cFO8eWyNVjwixuwdcdOs4ZYhd51/2azBiDaHxYANlBK+QF0AjDUrP+oQ6Y7fqe5m7S1d+LjxSvR3WNOEzWlFC4774e49rKfuWYKPBY9+Ndncd1tD6Oru9usIRoBzNRamza1QDQYfHrYIxsGH/5ej4cPf2GJgXjMmDTStP+uWmvc9fA/cNyZl4pfl0vGNTa14IwLr8VVN99n5sO/G72tevnwJ9vxCWKPFqMBgqEQQiHO3khLT03G9Ikj4fGY962xcNEyHHTCz2w/f0/fWPzVKhx04jl46Y0PzRymG8BpWuvXzByEaLBYANigb92v02iczi75JjYEZKWnYtqEEfB4zLtOua6hCaed9ytc/4eHHX2HQCy4/7FncNQPfmHmej/wzZv/82YOQhQOFgD2MTwH3NFp2jRlzMvJTMOUsWVQyrwiQGuNe/70JOafeoHlTXio94TDiT/+X/zq1vtN2/fRpwfA6Vrr/5g5CFG4WADYp8ZogKaWVok8aAB5ORmYNGYYTKwBAABLV6zF4addhEuuuxP1jbzLxWztHZ246e4ihhIMAAAgAElEQVRHcOBxP8W7H5t2vn+XHgA/1Fr/2+yBiMLFAsA+hmcAKmvMObdO3yjMy8L4UUNNHycUCuGxp17EtCMX4PFnXnb0rYJu9uo7CzHzmB/j9gf+ZuZGv12CAH6ktX7W7IGIIsFjgDZRSt0N4FKDMXD4QVPg98neb0/fVl5Zi2VrNlm28fKAqeNx128uw6SxIywZL9pt21GJK2++Fy+/+ZFVQwYBnKm1fsqqAYnCxQLAJkqpk9DbCcyQcSNLUVqUK5AR7U9tfRO+WLEePT3WbNrzej34yfePx+Xn/wjFhXmWjBlt6hub8MBjz+LeR/+J9vYOq4YNAligtX7SqgGJIsECwCZKqQz07gMwtAwTH+fHvFmT2BPAIs0tbfh82Vp0WrgB0+/z4fSTj8Ll5/8Iw0uLLBvXzSqr63Dfo//En//xPFrbzOnuOIAW9L75c7c/OR4LABsppb4AMNVonJHDijCClwJZpr2jC4u+WosWax8s8Ho9OOU7h+GXF5yJsSOHWjq2W2wvr8Q9f3oKjz/zMjo6LT8muxHASVrr5VYPTBQJFgA2UkrdBeAyo3G8Xg9mTx2LlOREgaxoMLp7erB42TrUNxru6RQ2pRSOP/JgXHHBAkyZ4L5LdsywYfN23PnQE3j6+TfMPtI3kDfRe86/zo7BiSLBAsBGSqlDAbwjESuQEIc508YhLs7dl7C4SSgUwrI1m1FeWWtbDtMmjcEZJx+NU48/DFkZabblYYeW1jY8/9r7ePI/r+GDT5fYeXLi/wBcrrVmRydyFRYANlNKrQAwTiJWemoyZk4exYtmLLatohor123d7zW5ZvL7fDjq0Fk4/eSjcexhs11/G99AgsEQ3v14Mf7xn9fw0psfWrmxrz+dAM7XWv/FziSIIsUCwGZKqQsAPCAVLyUpgOkTRyKQEC8VkgahuaUNX67YgFZ7H0gAgPS0FJz6nfk4/eSjMHPKOFPvNbDKV6vW458vvIF/Pv8mdlbbN+OymwoA39Vaf2p3IkSRYgFgM6VUMoAdAFKlYsb5fZgyrgxZGWIhaRB6gkEsX7MZFVXOWQZOS03GQTMnY97sqThk1lSMHz3c1PbGUjZs3o73P/ny67+qa+vtTml3n6H34V9udyJERrAAcACl1L0AfiEdNy87HaOGFyM5MSAdmvZh644qrNqw1ZG3NWZlpOGQWVNwyIFTMW/2NIwcNsQRBcG2HZV4/9O+B/7CL5x6XXI3gFsB3KK15kUc5HosABxAKVUKYAWAJBNiIz8nA/k5mcjJTGO/AIs0Nbfhq9Ub0dxq7VHBcAUS4lE2tBgjhw3p/Wt4CUYMK8bIYSVITZH9cmxr78D6zduxbuNWrNu0Des3bce6TVuxftN2NDv/XotFAH6qtV5mdyJEUlgAOIRS6jIAd5k5hsejkJmWgkAgHglxcYiP97tmw2AgIQ7pqcl2pxEWrTU2btuJ9ZvLbd0gGKnc7AyUFhcgJTkJKUkBJCclIjk5ESlJib1/nxhAclIAHo8Hza1taGltQ0trO5pb2tDa1o6W1jY0t7ahuaUN28srUV5Z48Y7DjoA3ADgTu7yp2jDAsAhlFJeAJ8AmGF3Lk5UkJuJKePK7E4jIm3tnVi+djNq63nTn8t8COBnWuu1didCZAbOBztE39vFuei9PpSiSGIgHgdMHo1JY4bB7+fFTS7Qgt49OXP58KdoxgLAQbTWSwDwApEoVZSfjbkHTERhXpbdqdDA3gYwUWt9n+b0KEU5FgAOoJTKUEpdrJRaAmCB3fmQeeL8Powaxgt9HOx2rfVmu5MgsgLnI22ies9ezQdwDoDvAkiwNyMiIoolLABsoJQ6AcBNACbbnQsREcUmFgAWUkodAeBmALPszoWIiGIbCwALKKVmAbgNwDy7cyEiIgJYAJhKKZUC4HcALgRgf79VIiKiPiwATKKUOh69t/wNsTsXIiKivfEYoDClVI5S6kkAL4IPfzKJ1+tBdma63Wk4RkpyEgIBHqQhCgcLAEFKqTkAlgI43e5cKLolJQawfuG/8eqT9+Lin34fQ4cU2p2S5fJyMvHT00/Efx69HZs+ew4jStlfgSgcXAIQopS6EMA9APx250KxwePxYM6MSZgzYxJu/dWFWL56A15680O8/MaHWLpynd3pmaJsaDGOP+JgnHDUIZg5ZZwjrjImcisWAAYppRIAPATgx3bnQrFtwpgyTBhThqsv/jG27ajEa+99gk+/WI7Pl6zExi077E4vIoV52Thg6njMnDIOR8ydhbEjh9qdElHUYAFggFKqAMBLAKbZnQvR7oYU5eGcM07COWecBACorW/E50tW4vMlK/HZlyuw+KvVaGltsznLPcXH+TF5/KivH/gHTB2Povwcu9MiilosACKklCpG78UhI+3OhWh/sjLScMz82Thm/mwAQCgUwqp1m7F6/WZs2b4Tm7eVY8u2CmzaVoHt5ZXoCQZNycPj8aAwPwdDi/MxdEghSocUYGhxAUYOG4IJY8sQ5+cKGpFVWABEQCk1FL0P/2H2ZtK/OL8P8fFxiPf7gChZI01NTrQ7haji8XgwfvRwjB89/Fv/XzAYwo6dVdjcVwy0tLWjvaMTbe0daG/vRFtH36/tHWhr74DWGomBBAQS4pEYSPj6r0AgHokJCUhMTEBRfg5KiwswpCgPfh9/7BA5Ab8Tw6SUGoHeh79tR/w8HoWs9FSkJCciId6P+Li4r3+Nj/PD44mOhz7Zw+v1oKQoHyVF+XanQkQmYgEQhr6H//sACqwe2+fzIiczDXnZGcjJSoPP67U6BSIiiiIsAAZJKZUJ4GVY+PBPiI9DblY68rLTkZWRyiNPREQkhgXAICil/AD+BWCUFeMlJwUwengxcrPY6Y2IiMzBAmBwHgZwqNmDJMTHYeTQIhTlZ0fL3j0iInIoFgD7oZS6GsDZZo7h83lRVlKA0uI8eD3szkxEROZjAbAPSqm5AG4xK77Ho1BSmIsRpYXw+/lHQURE1uFTZwBKqVQAf4VJFyYFEuIxfcIIpPB8OxER2YAFwMDuBTDUjMCZ6SmYOn4E4vjWT0RENuETqB9KqVNg0uU+QwpzMH5kKY/0ERGRrVgA7EUplYveXf/ScTF2RAlKi3KlQxMREYWNBcC33QQgWzKg3+/D1HFlyMpIlQxLREQUMRYAu1FKTQDwM8mYfp8Ps6eORVJigmRYIiIiQ3jofE93AhBrsq+UwtTxZXz4ExGR47AA6KOUOhbAUZIxx44Ywml/IiJyJBYAAJRSHgB3SMYcUpiD0qI8yZBERERiWAD0OgHAOKlgmekpGD+yVCocERGROBYAvf5XKlAgIR5Tx4/gOX8iInK0mC8AlFLTAMyViOXxKEyfOJId/oiIyPFivgCA4Nv/kMJcpCQFpMIRERGZJqYLAKVUIYDvS8Ty+bwYUVooEYqIiMh0MV0AAPgRAL9EoOFD8jn1T0RErhHrBcD3JILEx/sxtDhfIhQREZElYrYAUEqVAjhAItbIoUXwemP2PyUREblQLD+1RN7+kxMDKM4XvTuIiIjIdLFcAJwmEWTU8CKe+SciIteJyQJAKZUPgen/OL8PuVnpAhkRERFZKyYLAAAHATD82p6Tlc63fyIicqVYLgAMy8vOkAhDRERkORYAEfJ6PcjO5FW/RETkTjFXACilAgCmGo2TnZEGryfm/vMREVGUiMUn2EwIdP/Ly+bmPyIicq9YLAAmGA2glOLufyIicrVYbF4/3GiAjLRk+Nn3X1RHZxe01iaPouD1KHh93gGXb9JSU0y/06Glrd3U+GRInlJqqN1JOEgIQCuAZq11l93J/P/27jy8yvLOG/j3Ps9Zc5ZsZAGSsgkJKIuIgIIiggJWq7jUSp0KLkzVql3cuth2bO1V3+mi0/btMtXXdga1vjqjba2OFRBZyyayyhJCIAGybyc5+7nnj8TWBYHw3M95znOe7+e6csUl/T6/mpDzO/dKatnxVWyE3oBAHq/8VW3DO3sQiWbu94sQAk5Ng9PpgKZp8Hnc8Od5cd2VczF7xhSMHlmJwaXGnPB4uOE4/uu11YZkk27PmF1AthJCxAF0AegG0AngIIC9H/yQUrabVyENFBuAM+DxKLlAkEwkpUQimUQi2ff34Z4Imts68eNfLcOPf7UMABAM+DH13HGYdcFkXDztXEw8ewzvfCA7cwMY1P8BAJM++gVCiOMAVgNYAWCFlHJf5sqjgbJjA6B7CsDjZgNgB93hHixfvQnLV28CAISCfsycOgmXzpiCaxZcglKeA0H0UeXoO2b9BgAQQjQAWAngNQAvSyl7TayNPsJWb2eEEAUA8vXmeNkA2FJXdw/+snwt7n/0SVTPvB7X3/EwXvzzCkSiMbNLI8pWQwHcDGAZgONCiKeFELMEj1DNCnYbAQiqCPG43SpiyMKSqRTeeGsD3nhrAwL+PFwzfxaW3rwQk84ZY3ZpRNkqCGBJ/8chIcTvAfxSSnnc3LLsy1YjAAA8SkK4BoA+INzTi/986TVcvHApFt76ANZt3m52SUTZbjiAbwOoFUL8QggxzOR6bIkNwAAJIQzfJkbWtXz1Jsy/6V7Mv+levPn2RrPLIcp2XgB3ATgghPh/QogqswuyEzYAA+R2OXkDIJ3Sus3bce1tD2L+Tfdi975as8shynZOAIsB7BZC/FoIUWRyPbZgt7eyuifvXU67/ScjPdZt3o6Zn7kddy+5AV+/dzHyfF4UFYTw00e/qiuXO1E+zufzml0C6ecAsBTAtUKIBwD8Thp/QphtCTv9txVCXATgbT0ZbpcTc2bovkuIPuKtDe9m9CAgM1QMLsXj37oHV11+kdml5KSvffcJ/Puyl80ug9RaA+BOKeVOswvJRXabAujUGxBPJDNwZC3lovpjTfj83Y/g1q88inAPt0OrNnlCtdklkHozAbwjhHiQWwfVs1sDoOSYylg8oSKGbOrFP6/ARdcsxfY9B8wuJadMPfdss0sgYzgBPA7gz0KIYrOLySV2awDaVITEYmwASJ+aQ/WYc/2d+O2zr5hdSs4YPaISi2+80uwyyDhXANgmhJhhdiG5wlYNgJSyB4DuieZoPLfnqikzYvEEvvqdn2LJlx9FNMafKRUee/hOVAwpM7sMMk4FgLeEEF8zu5BcYKsGoJ/uaQBOAZBKL726AguXPICu7h6zS7G8YMCPp3/yCMpKuIsshzkB/EgI8QTXBehjxwagUW8ApwBItbWb3sWCRfeisVnJLJWtTT/vHGx87RnccNVcs0shY90H4FkhBM9mP0O22gYIAEKI5wHcqCejcnAJzqkarqYgAgCs2bQTkQwMgyeTKcOfocewisF45ZkfYeSwoWaXkhM2bNmJtZvexdYd7+GdnfvQ1R02u6SM6OmNIJVK6wtxOCDcbshoVE1RxnkTwLVSym6zC7EaOzYAjwB4VE9GMJCHmVO44tiKpJSIxROIxhKIxeMf/hyLoycSM/12v5LiQvxl2ROoGsXj0WngEskkRl9wLdo6unTl5E2bjqJblkAmEkh1dCDV2YFUZyfSnR1IdXT2/30HEkePIh02vbHaDGCOlFLf/2mbseOxdroPlOgO9yISjcHnVXK3EGWQEAJejxtejxuA/4RfE+6JoLGlA42t7ejsyvy8fHNrOxYueQBv/OHnqBhcmvHnk7WtXLNZ94s/AHirxwIAhMsFZ0kJnCUlJ/7CdBqxgzWIvrsNkXe3IdnSovvZZ2AKgP8WQiyQUnJF7Wmy4wjAGAB79eaMPetTGF7B1ca5LhZPoKmlA40t7Wjt6EI6nbk/L2NGfgr/8/zPUFyYn7FnkvXdcf9j+MMrf9WdM/gHj0MrKBjw/y7RUI9IfzOQOHJEdx0D9AKAm6SUOuc/7MGODYAGIIy+W6jOWFFBENMm8eQxO0ml0jjW3IYDhxoydmzx5AnVePU/fgp/ni8jzyNri0RjGDV9oe6TJp3l5Sj/9r/orifV1oaeNavRveJNyMxtn/65lPKeTD3Mymy3C0BKmQKg+8L29s4wEomkgorIKjTNgYryQbh46gRUj6rMyMVQW7e/h0V3PaJ/QRfZwusr1ys5ZtpbpebNjVZUhNBnrkb5v3wf/hkXAY6MvOR8SQjxcCYeZHW2awD66R4fk1KiqbVDRS1kMQ6HwIjKcsyaPgEjPzUYDoN/qa1cuxmPPfm0oc+g3PC7F15VkuNR1AC8T8vPR+Hnb0b5t74D34SJSrM/wWNCiDmZeJCV2bUB+B8VIY0tSq4WIItyOTVUjazArGnjMbR8EIw8kuTHv1qG5as3GfcAsryV67ZgxRoFPyNCwFNVpT/nBJzl5Sj+4l0o/dqDcI8cZcgz+jnQd0bAYCMfYnW2WwMAAEIIF4BWAEE9OZrDgTkzzoWm2bWPog/q7O7BO7sOGLY+YFBRAdb+6bcYXDrIkHyyrnQ6jYsVXTDlHjYcpQ99XUFVp9a7YT3an1sGmTDscLVV6NsemN0HgJjElq9cUsoEgJV6c1LpNOqPNyuoiHJBftCPCyePQ2F+wJD8lrYO3PaV73E9AH3M8y+/oex2SU//9r9MyJt+AUq+ej+0/IHvNjhNs6Dz3JdcZssGoJ+SaYADh44imWJzSX3cbhemTqxGRbkx79LXbHwX//bU84ZkkzVFojF876dPqQlzOOC/8EI1WafJPWw4Sh/+BtzDhxv1iK8LIWYaFW5ldm4A/ghA9yt3PJHEwcPHFZRDucLhEBhfPQLVoyoNWRfw+M9/j/pjTeqDyZK+/8TTaFA0Euk7dzKcJZk/fErLz0fJV+5H3tRpRsQLAL/o3wJOH2DbBkBKWQ/gTyqyDtUf5w2B9DEjKstx3vgxcDrV/t7pjUTxjR/8QmkmWdPLr6/Cz576g7K80OXzlWUNlHC5ULT4VuQvvBYGdM4TAHxJdajV2bYB6Pd/VYSkUmnsP9SgIopyTElRPi6YPBZul9ozA15+fZWaFd9kWXtr6nDnQz9UlucddzZclZXK8s5U8LJ5KP7nO404M+BRIUS56lArs3sD8CaAfSqC6o+1oKc362/NIhME8nyYfM5ZcDjUvqu5/9F/Q9y41dOUxcI9vfj8XY+gpzeiLDNo4rv/j/JNmIiC665XHRsC8H9Uh1qZrRsA2bcH8peKsrD3YL2KKMpBhflBnD1a7e1+B2qP4Onn/qg0k7JfMpXCHfc/hn0HDyvLdA8fAc+YMcryVAjMngP/DOVr9/5JCHGe6lCrsnUD0O8ZAPrPzkTfwUCNLTwdkE6sYnCJ8guknvjNcxwFsJFINIZFd34Lr765VmlucF72vPv/oILPLYLnrNGqY7+pOtCqbN8ASCk7ADyrKu/dPTXo7lE3LEe5pXpUJQYVqbvd72hjC5a99LqyPMpenV1hXLPkfry+cr3SXFf54EwdzztgQtNQvPSLcBYXq4y9RghxjspAq7J9A9BP2ZLqVCqNLTv2I86LgugEhBCYNG4U/Hm6LqP8kJ/8+lmeRZHjjje3Yv6ie7F+8w61wUKg4MbPGbHqXhlHIIDiO++G8HhURQpwFAAAGwAAgJRyG/rOBVAiEo1h684DsOMxy3RqLqeG88aPVrY9sK7+GF5QcP87ZacNW3Zi7g13Y9feg8qzA7PnKL/4xwiuIUNRtOQ2lZGfFUJk16IHE7AB+IevAIipCmvv7MaufXWq4ijH+H1ejPqUuntKnvwtTwfMNZFIFA99/+eYv+heHG5Qf9iYa8gQ5F+zUHmuUXwTJsI3cZKqOAeAr6kKsyo2AP2klAcB/Fhl5pFjzThU36gyknLIsIoyeD1uJVl79h/Ctp1KdrRSFliz8V1Mv/JW/PJ3LyKdVn/3g3A6UbT4Ngin2vMpjJZ/9UKV5wPcKIRQNxdnQWwAPuwHAJTu5Xuv5gh3BtAJaQ4HRo8YqizvuZffUJZF5thbU4e7Hn4cn775y6g9fNSw54SuuhquigrD8o3iLC+H/8IZquLyAXxGVZgVsQH4ACllD4AHFGfinV37UXuE9wXQxw0tG4Sg36ck68U/L+diQItauXYzrrv9IUxdsBj/+dJrhq4f8oweg+DcywzLN1ro01dBuNWMnAH4gqogK2ID8BFSyucBvK02s28kYPt7tUinuTCQ/kEIoGqkmndiza3tWLGaxwNbxZGGRjz13B8x/dNLcPXi+/HXVX8zfOGww+tF0S2Ls3rV/6lo+fkIzpmrKm6eECLztx9lCWtNAGXOvQC2AFB6i0vD8b7jgiefcxY8bpfKaLKwkuICFBUE0dbRrTvr+VfewOWXTFdQFanW1NKOtzdsxar1W7Fq/Ts4dMS4If4TEZqGoiW3QStSuqfeFMHL5iG8ejXSYd1/ZpwAbgLwpP6qrEdwq9qJCSEeA/ANI7K9HjfOGz8aoUCeEfFkQZ1dPVi3dbfunFDQj7pNf4KmqRnc27RtN1b/bZuSLLtIplJobm1HS2sHmlra0Nz/ua2jy7SahKah6I5/ztoDf85E+K2V6HhBye6XN6WU1p0T0YENwCcQQjgAvArAkDMyNc2B8VUjMLi0yIh4sqD1W3ejo6tHd86q//o1zh1fpaCivkOGvvuj3yjJInMITUPR7UtVbqHLCjIex9EHvgqp/yjsCIACKWVcQVmWwjUAn0BKmQawCECNEfmpVBrbdtdg47a96OzW/0ufrK90UKGSnFUbtirJIesTmoai2+7IuRd/ABBuN7xjx6mI8gGw5bwZG4CTkFK2A1gIwLBX6NaOLqzbshvbdtegN6LsHCKyoLLiAiU5q9azASAADkffi/+kc82uxDBedVMal6oKshI2AKcgpdwB4Fajn3OsqQ1vb9yB3fsP8x4Bmwr4fcjz6T/vfP3mHUgk+TNkaw4HinP8xR8AfOMnqNrRwAaATkxK+QKAf83Ac1DX0IhVG7ajpu4oYnFe82o3ZQqmAXojUbyzY6+CasiKHF4vipd+Eb5zJ5tdiuEcwSDcI0eqiJomhFB225BVsAE4fV8HkJF7V5OpFPbVNmDFum1Yv3UPDh4+hnAvrxi2g7JBaqYB9uw/pCSHrMUz6iyUfvPbObXa/1R8E5Ssb3ADsN3lQDwH4DRJKVNCiIUAXgJwRaae29EVRkdXGHsP1sPv86J0UAHKBhWiIBSw8lke9AkKQgG4XU7d00D7aw8rqogsweFA6MqrELp8vsqz8i3BN3EiOv/7JRVRYwEovm85u7EBGAApZVQIcQ2AZwFcn+nn90SiqD1yHLVHjsPtciLg98HrccPjdn3gswsetxsejwuazX4R5AIhBEqKC9BwvEVXzv6DRxRVRNnOWVqKosW3wT18uNmlmMJZWgZneTmSx3Uft5799yIrxgZggKSUCSHE5wA8BeAWs+qIJ5KnPDnOqWlAjowSlJcUYnzVCLPLyIiCoF93A7B8Vw2mrdyvu5bWg/rqIGP5L5yBgs/eCOG23fT1h7iHDVfRAIxVUYuVsAE4A/3TAUsA9AK40+x6PkkuXQyTSqm/EjVbeTz6j4mONzejK5aA0PSdZh1L8aCwbOQsKUH+wutyfpX/6dLy81XEcASATo/sO0LxLiFEGIpvECR786q46SydRqqtFc4S295zkpNcQ4YiOG8+8s6bYru5/pPR8pUsnh2tIsRK2ADoJKV8UAhxHMAPAfCGH9JNxQgAAKR7e5XkkPncI0YiOG++yn3vOUUrUNIA+IUQLimlbfZfswFQQEr5EyHEKvQtDrTdVhJSy+N2QYi+a6T1kNGomoLINJ6qaoTmL4Cnynaj0wOiaAoAAIIA2lSFZTs2AIpIKbcIISYDeALA7WbXQ9YlhIDb5dJ9EFQ6xqOlrcg1eAg8Y8ch7/zz4R423OxyLMGhZgoAYANAZ0pK2QPgDiHE6wB+A4BX/dEZ8bj1NwAcAbAGRyAAb/VYeMaNg7d6nKrhbFtRPAJgG2wADCClfEkI8TcAvwcw2+x6yHo8HjcQ1jeHn2YDkHUcvjw48kNwFhbCM6YKnrHj4K78FOf1dRJOJxx+P9I9uu9tYwNA+kkp64UQcwEsBvBdAJWmFkSW4nHp/6Mp4/qnAFyVlfBfdLHuHDsRmgZHMAQtFIQWyocjFIIWDMERCkE4+SvXKFooX0UDEFBRi1Xwp9FAUso0gKeFEMsAfBHANwGUmFsVWUEiqf8MB+HUv5vAO+5seMedrTuHyHCakm2R+g7OsBhuJM0AKWVMSvkkgJEAvg2g0+SSKMtF43HdGQ6vV0ElRJSr2ABkkJQyLKX8HvoagX8FwCv+6IRiMf1bkQUbACI6CTYAJpBStkkpHwRQgb6jhNeZXBJlESmhewcAwBEAIjo5NgAm6m8EfiWlnAFgFIDvADhgcllksngiAan3FCBwBICITo4NQJaQUh6UUj4qpRwN4ALv+Am7FJ1vTRaj4t0/wAaAiE6OuwCykJRyQ+Uvf7MGwNmpzg7E6+qQOFyHeF3fRzp88muAydqiMf0LACEEnEXF+nOIKGexAchyWn4BfBMK4Jsw8e//LNXWhvjhOvSsX4foju0mVkdGULEAUCsogFBxqyAR5Sw2ABakFRXBV1QE4XTpbgA0zYGZU87J+oPINJ332ltJd6/+zSGu8nIFlRBRLmMDYGGuigrdGalUGpFYDMUFIQUVkQpNLR26M5xlbACI6OS4CNDCtIICOPx+3TkqXnBIje6eCCJR/Uf4OkvLFFRDRLmMDYDFuYbqHwVoamUDkC2aWtqV5LgGD1aSQ0S5iw2AxamYBuiNxNDTy5vjskGjgtEYoWlwjxihoBoiymVsACzOM+osJTkcBTBfNBZHZ7fu28zgGjYcwu1RUBER5TI2ABbnqa4GHPq/jWwAzKfqe+AdU6Ukh4hyGxsAi3P48uAePlx3TntnGJGoggNo6IypWozpqWIDQESnxgYgB6i4r11KiYOHjymohs5EJBpHa0eX7hzhdMI9cpSCiogo17EByAEqGgAAqD/erOYYWhqw/bX1SKf1XwDkGT0awuVSUBER5To2ADnAPWw4tIJC3TnptCQ7Yf0AAAmxSURBVERNHUcBMq073IujTa1KsvKmTleSQ0S5jw1ALhACgVmzlERxFCDz3jtYDwW3/0K4PfBNOld/EBHZAhuAHOGfebGSod90mmsBMqm1vQstbZ1KsnyTJkF4uP2PiE4PG4Ac4fD7kXf+VCVZR45xFCBT9h6sV5aVN+0CZVlElPvYAOSQwOxLleSk0xI79h5SkkWf7FhTm5KDf4C+eyG81dVKsojIHtgA5BDX0Ap4xoxRktXS1smpAAMlkyml7/4Dsy9F1t/pTERZhQ1AjgnMnqMsa19tAzq6wsryqI+UEtt21yi59Q/om/4JXHyJkiwisg82ADnGN2EinMXFSrLef6FKJFNK8qjP3oP1aFa08A/oe/fPxX9ENFBsAHKNEPDPmq0sLhKNY8feWmV5dld/vAW1R44ry3N4vcrWfhCRvbAByEH+GTOU3gbX2NyOQ/WNyvLsqr0zjF37DinN9F8yGw5fntJMIrIHNgA5yOHLQ/Cyy5Vm7jlwGIePNinNtJNINI6tuw4oOe73fY5AAMG5ar/PRGQfbAByVHD+ArgqKpVm7tpXp3T42i6SyRS27NyPeDyhNDf/mmvhyOO7fyI6M2wAcpTQNBR94RYITVOa+17NEdTUHVWamct6IzGsf2cPusO9SnPdI0bCf8GFSjOJyF7YAOQwV0UlgvMXKM/dV9uAfbUNynNzTWt7F9Zt3Y1wT0RtsBAo/Nwi7vsnIl3YAOS44PwrlE8FAEBN3VHsPnAYUsUtNjmorqEJm7bvQyKRVJ4duHgWXJXqv6dEZC9sAHKcUVMBAFBX34j1W/cg3Kv4Ha6FSSmxc98h7N5fZ0hz5CwtRf7VC5XnEpH9sAGwAaOmAgCgs7sHazfv5jZBAPFEEhvf3YsjR5sNyRdOJ4pvXwrh9RqST0T2wgbAJoyaCgCAdDqNPQcOY+O2vYhE7XeLYDotcai+EW9v3IG2jm7DnpN//WcN+x4Skf2wAbAJI6cC3tfa0YU1m3fiyLFm26wNONbUhrc37sCeA4cNme9/n++8KQhcPMuwfCKyHzYANuKqqEThLUsMXT2eTKawc+8hrPrbdtTVNyKVShv2LDO1tndh7ZZdSi/1+STOsjIUfv6fDH0GEdmP0+wCKLPyppwPGY+jfdl/AAa+S49E49h94DD21x3FsCGlGFZRBrfL+j9uXeFe7D1YjxaFl/mcjJZfgJJ77oOD8/5EpJj1fyPTgPkvnAEZi6Hj///B8GclEkkcqDuK2iPHMXTwIFQOLkEoYK3T6zq7e9DY0oHGlnb1e/pPwpGXh0H33AetSM3tjkREH8QGwKYCsy+FjMfQ+crLGXleKp3G4YYmHG5ogtvlRHFhCMWFIQwqDMHnza6rbKWUaOvoRmNLOxpbOhCNZX5ho3C5MOjOL8E1ZEjGn01E9sAGwMaC8xZAxuLoev0vGX1uPJHEsaY2HGtqAwDk+TwoLgyhIBiAx+OCx+WCx+2C2+2EMGi9gpQS8UQS0VgcsXgCsVgC0VgcPZEoWto6kUimDHnuaXE4UHz7UrhHjTKvBiLKeWwAbC70mauRjsUQXrnctBp6IzH0RppxBB/fP+92OfubAZeSZiCRSCIajyMeT2blTgXh9qD4jqXwnn2O2aUQUY5jA0AouP4GyHgMPWvXmF3Kx8QTScQTSSCDc+9mcfj9GHT3PXAPH2F2KURkA2wAqO9ymUU3A0KgZ81qs6uxJa2oGCX33AdnWZnZpRCRTfAcAOrT3wQULbmNR81mmKuiEqUPPMgXfyLKKI4A0IfknT8V7uEj0Pb0vyNeV2d2OTnPP/MiFNxwI4TLZXYpRGQzHAGgj3GWlKDk/ocQnHsZ75w3iPB6UXTr7ShcdDNf/InIFBwBoBMSmob8a6+Hp6oabb97BumwcZfc2I2rohLFty+Fs7TU7FKIyMY4AkAn5T37HJR98xF4qqrNLsXyhNOJ0BVXovTBh/niT0Sm4wgAnZKWn4+Se7+M7jdeR9dfXoVMJMwuyXK8Y8ei4MZFfOEnoqzBBoBOjxAIzluAvAtmILz8rwi/vQoyZuwteLlAyy9A/vU3IO+8KWaXQkT0IWwAaEC0UAj5C69D8PL5CK94E+G3ViIdyf1DegbKEQwieOlcBGZdwm2VRJSV2ADQGXH4/QhddTUCcy9HeOUKhFcuR7qnx+yyTKcVFiJ42Tz4Z8zk6n4iympsAEgXh8+H0BWfRnDOXITffgvdb/4V6W777RhwVVQicMls5E2bDqFpZpdDRHRKbABICeHxIHjZPAQuuRS9GzcgumMHonvfy+l1AloohLyp05A3/QK4hgw1uxwiogFhA0BKCZcL/hkXwT/jIshkEvGaA4ju2oXorp1IHDtqdnm6aaEQPNVjkXf+VHjHjgMc3ElLRNbEBoAMI5xOeKqq4amqRv611yHV3o7o7p19DcF7eyCjUbNLPCVHXh48Y6r6Pqqq4Bo8xOySiIiUYANAGaMVFv5jdCCVQrz2IBINDUg2NyHZ3IxUczOSrS2mnDPgyMuDs6wczrIyuMrK+v+6HK7ych6HTEQ5iQ2ACYQQJQB+drKv8Yw6a4pWUPDJGR4PCm/+gurSMkZoGjxnjYbnrNEf/hdSIt3Tg3QsChmNQkZj//jrdFrnQwWEywWH1wvh9fZ99rz/2aMvm4jIYtgAmMMP4MaTfUGs5sBJAxw+n6UbgE8kBByBAByBgNmVEBHlNK5gIiIisiE2AERERDbEBoCIiMiG2AAQERHZEBsAIiIiG2IDQEREZENsAIiIiGyIDQAREZENsQEgIiKyITYARERENsQGgIiIyIbYABAREdkQGwAiIiIbYgNARERkQ2wAiIiIbIgNABERkQ2xASAiIrIhNgBEREQ2xAaAiIjIhtgAEBER2RAbACIiIhtiA0BERGRDbACIiIhsyGl2AXSGpEQ60mt2FURE2SGdNrsCyxFSSrNrsB0hxHAAtSaXQUREH7ZASvm62UVkCqcAiIiIbIgNABERkQ2xASAiIrIhNgBEREQ2xAaAiIjIhtgAEBER2RAbACIiIhtiA2COqNkFEBHRx9jqdzMPAjKJEKIZwCCz6yAior8rllK2mV1EpnAEwDxbzC6AiIj+rsZOL/4AGwAzbTK7ACIi+rsNZheQaZwCMIkQohjATgDlZtdCRGRzEQCTpJT7zC4kkzgCYBIpZSuApWbXQURE+JbdXvwBNgCmklL+CcAPAXAYhojIHC8CeMLsIszAKYAsIISYC+BpAJVm10JEZBMdAO6TUv7e7ELMwgYgSwghQgC+AOC8/o+xAJymFkVElDskgP0AtqJvF9ZzUsoGc0sy1/8CjvgTpbcem8QAAAAASUVORK5CYII=;" vertex="1" parent="1">
          <mxGeometry x="-124.00090909090949" y="80.99636363636353" width="150" height="150" as="geometry" />
        </mxCell>
        <mxCell id="hTkhz982k4hAJJfi6Dwt-7" value="" style="shape=image;verticalLabelPosition=bottom;labelBackgroundColor=default;verticalAlign=top;aspect=fixed;imageAspect=0;image=data:image/png,iVBORw0KGgoAAAANSUhEUgAAAgAAAAIACAYAAAD0eNT6AAAABHNCSVQICAgIfAhkiAAAAAlwSFlzAAALEwAACxMBAJqcGAAAABl0RVh0U29mdHdhcmUAd3d3Lmlua3NjYXBlLm9yZ5vuPBoAACAASURBVHic7N1ndFzV1YDhd0aj3rsly7bk3o0LNhjjBqaEYgi9t9BJgAS+hBICIfQECDWh9xJ6h7jbuPcmS7Ys2bKq1Xudme/H2MEY2ZbuOTOjq7uftbRYCT77bmRpZs8p+9gQQvRUKcAwoN++r3SgLxAFxADhQMS+rzagft+4BqARKNv3VQSUADuBnH3/rPDRf4MQwkts/k5ACKFFJDANmAiM2/eV4sXnVQNZwMYDvjYDdV58phBCIykAhDAnO3AccBIwE88bv8OvGYEbzwzBin1fS4EtgNOfSQkhOiYFgBDmYQemAOcB5+DdT/i61AGr8BQD84HlQKtfMxJCCCFMIg24H9iD51O2mb/qgW+B24FRyIcQIYQQ4hdmAV8C7fj/jdtbXyXA68BZQJieb5sQQghhPnbgDDxr6P5+c/b1VxPwFXAd0Ev1GymEEEKYgQ24AM/Oen+/EXeHr3ZgAXATEK/wfRVCCCG6rROBNfj/Tbe7frUDc4DL8fQuEEIIIUxtAPA1/n+DNdNXNfAWnmWSgK5/y4UQQgj/CQUewLPm7e83VDN/5QF/BBK79u0XQgghfO9YYBv+f/PsSV8twH/wLKUIIYQQ3Uoo8CSernj+fsPsyV/r8ZwikL0CQggh/G44sAn/vzla6asaeARI7sTfjxBCCKHdNXhu1/P3G6JVv5qA54GMI/1FCWE10oZTCO8IBP4J3OjvRIIcAaTGRJASHU5MWDARwUFEhwYTGRpESKADp8v1sz/f7nRT39JKbVMLtc2tVNY3s7eugbK6JuqaTdvGvx34AHgMzwVFQlieFACipwgChuKZbh+575+9gegDvoKBGqAWT0/6/VfaZgGZ+752acglAfgImK4hVtcfHhHKiN4JpCdE0yc2kqSoMOw2Pb/qTW3tFFc3UFhdR0FlHYXV9RRV19PabpoL/9x4jl4+BKz0cy5C+JUUAMLMhgCnAqcAU/FstFO1G/gB+C8wD0+R0BWjgc/x4ZSz3WZjUHIsI3snMCI1gaQo37bUd7ndFFXXs3NvNXnlNewsq6aqodmnORj0GXA3ngJQCMuRAkCYzQDgKuBivP8m2w58D7wCfLPvfx/OaXimmSO8nBcAiZFhHNM/hUn9U4kJC/bFIzuturGFHaWVZJVUklVcSU1Ti79TOpR2PJcR3Q8U+TcVIXxLCgBhBg7gPDzHu6bhn5/bIjxvFC8ChR38+wvxdKgL9GYSNmBkWiInDOvLgKRY0/wCl9Q0kFVcQVZJJdkllbQ5XUce5FuNwNPA43iWiYTo8czy+iGsKRC4FM807UA/57JfM/Av4FGgdN//dx2ewsDurYfabTbGp/di1vB+pMb4ZILBa1rbnWQWV7C5oIzNBeU0trb5O6UDVeDZH/ACngZDQvRYUgCI7siG543/r0C6f1M5pAbg2X3//Cte/F06qk8Ss8cOJDHSt2v7vuByu8kprWJjQRkb8vd2p6WC7XhOcMz3dyJCeIsUAKK7OQrPG+sUfyfib33jozh73CAGJcX6OxWfcLvd5JbXsCq3mLW7S2luO9KWC5/4GriBjpd9hDA1KQBEdxGBp3PbjVj8lrfQQAezxw7iuEG9LfsL2truZFNBGavzSthWXIHL7fZnOlV4lqFeArrd5gUhjLLq64voXiYC79J91vn9ZlTvRC6YOLTb7er3p7rmVpblFLI0p5BK/x4vXIGnQN3gzySE0EUKAOFPAXg+Wd2HZ6e/ZQU7AjhvwhCOGZDq71S6LZfbTWZRBUu2F5BZXIHbP7MC7cAzwJ/xnBwQwrSkABD+EofnCtcT/J2Iv/WJi+Sq40b5vIGPmVXUN/HjjkKW7yyivsUv7Ym3A1cCy/3xcCF0kAJA+MMI4As8TX0s7biBvTlvwhAcAV47QdijtbY7Wb6ziPnb8qloaPL14514+gbcD5j2kgRhXVIACF87A896f6S/E/GnALudcycM5vhBaf5OpUdwud2s3VXCnMzdFFXX+/rxG4CLkJbCwmSkABC+dBXwMhbf5R8SGMC1U8cwpFecv1PpcdzA1sJy/rt1F7llXb3GQUkD8Fs83SKFMAUpAISv3Ao8hcV/5iKCg7hpxlH0jY/ydyo9XnZJJV9uyGF3Ra0vH/senr4Bdb58qBBGWPrFWPjMfcADvnpYQkQoA5NiSYwMJSEyjLjwEALsP/2oN7S0UV7fRHldEwVVdeSWVfukN31seAi3zBxLclS4158lPNzAxvy9fLUxh9Jan23azwZ+jed6aSG6LSkAhLfdA/zNmw+wAYOSYxnXL5mhKfEkRHTtVuA2p4ucvVVsKSxnVW4xTV7oQJccFcYtJ4wjNixEe2xxZC63m+U7i/hucy7VjT5pN1wPXA185IuHCWGEFADCm24GnvNW8NAgB8cPSuPYAana+uS3tjtZs6uExdsLKKjSM4sbHxHK7bMmSHOfbqDN6WJR9h5+2JpHU6vXWw27gX8Af8JzYkCIbkUKAOEtlwJv4oUb8oIdAUwd3IdZI/oRFuSd23fdwIb8Ur5Yn0N5vfHjZZEhQdw2awLJcsa/W6lrbuWzdTtYnVeMD9oJ/Rc4H7lmWHQzUgAIbzgZzyUqWrv72YCjM1I4e9wgIkOCdIY+pHani0Xb9/D1xp1d3icQEujg9ydNMP31vT3ZjtIqPlydRUlNg7cftQXPEdhd3n6QEJ0lBYDQbSie7mgxOoMmRoZx0cShDPbT0bnS2gbeXLaV/E7uKA+w27l+2hiGp8Z7OTOhyulyMW9bPt9vyaO13asz9aXAWXjuFBDC7yx9HltoFwfMA3rrDDohvRc3TD+K5Gj/7Z6PCA7imP6p2GyQV17D4drQhwY5uGrKSEb2TvBdgsIwu83GgKQYjs5Ioby+ib3eOy0QAVwMbMLTSlgIv5IZAKGLA/gOOFFXwMAAO+dNGMLkgVrrCWVF1fV8uzmXLQXltLt+WhYICXRwdHovThqZLrv9TWzNrhI+XJ3lzU2C7cC1wBveeoAQnSEFgNDlYeAuXcEigoO4btoY+idG6wqpXUu7k9LaBppa24kMCaJXdDh2m/xK9QRVjc28vWwr20urvPUIN/BH4AlvPUCII5ElAKHDScCLaCook6PCuHXWeHrHdu/Ncw67nejQYBIiQokMCcImb/49Rmigg4kZKYQEOsgprcal/+phGzALCALm6w4uRGdIASBU9QJ+QNPlPr1jI7lVzsyLbsBms9E/MYbRfRLZWVZNXbNXLvw7HggD5nojuBCHIwWAUGEHPgNG6QiWFhvJ704YR0Swd872C2FEZEgQxw5IpdXpZFe5V47yHwdE4ekXIITPSAEgVNyCp9ufst6xkdx64jjC5c1fdEN2u41hKfGkxUaSWVTxs82fmhyL5+jsD7oDC3EoUgAIo9KBT/CsYSqJCQvm1hPH+6y5jxBGJUeHM7ZvEjmlVd5YEjgGz6zaQt2BheiIFADCCBvwMZ6mP0rCgwO5bdb4Ll/gI4S/hAcHMql/CmX1TRTr7yA4Dc9Vwst1BxbiYFIACCOuBW5VDRJgt3PTzLH0iYvSkJIQvhNgt3NU32QAdu7VflTwJKAAWK87sBAHkgJAdFUC8CWg/JH9vAmDGbvvRVQIs7EBg5NjSY4OZ2thuc6jgjbgNDwFgHQMFF4jBYDoqqeAKapBjs5IYfZRAzWkI4R/pcZEMLRXHJsKymjt4oVRh2EHZuM5HlioK6gQB5LOJaIrxgKrUSwcU2MiuPOUiQQGaL8pWAi/Kalp4Pn566lqbNYZthjP5sB8nUGFAC/c1S56LBvwDIpv/oEBdq48bqS8+Ysep1d0OH84+Wh66b20KgXP1dqyUUZoJ6/CorPOQ8PU/+yjBpIa071b/AphVExYMLfNmkBarJbGmPuNAt5CZmyFZrIHQHRGAPARng2Ahg1NieO8o4fKq5jo0YIcAYzrl0x2aRU1TS26wg7Fc4vgYl0BhZACQHTGFcBvVAIEOQK4acZYwoKk05/o+QIDPEVATmkV1Y3aioDpwBpgh66AwtpkCUAcSRBwn2qQX43qT7w0+xEWEhro2NfnQttygB14BxigK6CwNikAxJFcDWSoBEiLjWTmsL6a0hHCPEIDHdw8c5zOjYGxwPuATKUJZbIEIA7HAfwHzyUlhtiA30wdTVy4fPoX1hTkCGBMnyQ27SmjsbVdR8jeeGbm5AphoURmAMThXAD0Uwkwtl8y/RMN1w9C9AjRocHccsI4nRde3QmcqCuYsCYpAMTh3KEyODDALt3+hNgnISKUa6eO0dUDw47naGCijmDCmqQAEIdyEnCUSoBpQ/rIxj8hDtA/MZrLJ4/EZtNyGDYF+KeOQMKaZA+AOJQXUdhtHBLo4JrjRxPkkB8xIQ6UEh2Ow24nu6RSR7hRwFrk0iBhgMwAiI4MQXF9cfqQPoQHy0ZlIToya0Q64/ppuwnz3yhs1BXWJQWA6Mh1KLQdDQl0yLE/IQ7DBlxyzHBdbbFTgYd0BBLWIgWAOFgwcLlKgGlD+kjHPyGOINgRwLVTRxMa5NAR7gY03NUhrEUKAHGwc1Do+e+w25k2uI/GdITouRIjw7ho4jAdoezAy3gKeCE6RXZoiYM9C6QbHTypfwpHZ/TSl40QPVxKTARVjc0UVNWphkoAaoBl6lkJK5AZAHGgvsBUo4NtwMxhSn2DhLCk8yYMITlKS7vge1C8tVNYhxQA4kAXobD5b2hKPCn6ep4LYRlBjgCumjKSALtyf4AYNFzeJaxBCgBxoItVBh83qLeuPISwnLTYSE4cnq4j1I3AcB2BRM8mBYDYbxgw2ujgyJAgRvWWrqRCqDh1ZIaOmwMdwMMa0hE9nBQAYj+lT/+T+qfomL4UwtIcAXYumjRMR6vg2cB09YxETyYFgNjv1yqDJw+Q6X8hdBiQGMPxepbT/qojiOi5pAAQAP1RWDPsFx9FUlSYxnSEsLYzjxpIdKjykf7j930J0SEpAATAGSqDx6fLuX8hdAoJdHD6GMN3cR3oLh1BRM+kpQelML3TjA602WyM66vtUhNLKKtrJKukkvyKWuw2G8GBAQxPSWBQcqzsoxD/M6l/Cguz8imsrlcJcwowDlinJyvRk8irjYgEyjDYQnRgUiy3zRqvN6Meqq65lS835LAitxi32/2Lfx8TFsyFE4cxsrf0cREeWcWVPDdf+b37Y+A8DemIHkZaAYtfAZcYHTxjaF8yEqI1ptMzVTU289R/17C9tOqQf6a5zcmaXSXYbDYGJcf6MDvRXSVEhrK7opayukaVMEOB/wDlerISPYXsARCGW/8C8mm1E9qdLp6bt47y+qZO/flvN+1kZW6xl7MSZnH2uEGqxwLtwO81pSN6ECkAhOECIDkqnMRI2f1/JIu276G0tvOf4NzAB6u2qa79ih6iV3Q4R/VJUg1zERClIR3Rg0gBYG2RwBijg0f0jteYSs/U5nQxZ+tuQ+PeXLqFNqfLC1kJszl5ZLrqhq0IFJt9iZ5HCgBrm4zCSZARqTL9fyTrdpdS39JqaGxRdT0frcnWnJEwo7TYSEaoL7ddpyMX0XNIAWBtk4wODLDbZPNfJyzavkdp/LKcQpblFGrKRpjZySMzVEOMBSZqSEX0EFIAWJvhy3/6xEUR5JBDJIeTV15DfkWtcpyP1mSzW0McYW4ZCdEMVj8dIrMA4n+kALA2w+v/A5NidObRIy3OVvv0v1+b08XLizdS09SiJZ4wr+lD+6qGuBDZDCj2kQLAuiLw3AFgiEz/H15tUyvr8vdqi1fd2MJLizbKpkCLG9k7gZgwpTsCwoEzNaUjTE4KAOsahcLff1pspMZUep4fcwpwuvS+We+uqOXNZVv4ZQ9BYRV2m03HzZvn6shFmJ8UANY1zOjAkMAA4iJCdebSozhdbpbu8M7GvQ35e/lm406vxBbmMHlgb+xqjYFOxnMEWFicFADWZfiqsZToCLlE4jA27tnr1fX677fksVROBlhWTFiwagfOEBQuABM9hxQA1mX4TFFqTITOPHoUNzA3s+uNf7rqw1VZbCoo8/pzRPc0eaAsAwh1UgBYl+EZgKQoaf97KFsLy8mv9P6RPZfbzes/bmbn3mqvP0t0P8NS4gkLClQJcSqeDYHCwqQAsC7DMwDx4bL+fyjfb8nz2bPanC7+vWgjxTUNPnum6B4C7DZGpyWqhAjDsxdAWJgUANYUCRh+9YiXDYAd2lZcwa7yGp8+s7G1jefnd/6mQdFzjO2nfEHQiTryEOYlBYA1paoMTpACoEO+/PR/oOrGFv45Zy0VDVIEWMnQXsrLADN15SLMSQoAazL86T800EFokOH7g3qs7aVVfl2Pr2ps5rl566VboIVoWAYYAqRpSkeYkBQA1pRsdGBUaJDOPHqM7zfn+jsFyuoaeXbeOuqajd0+KMxnVJryDYEyC2BhUgBYUy+jAyNDlNqQ9kh55TVsL63ydxoAlNQ08Oy8dTS0tPk7FeEDg5PjVJsCzdCVizAfKQCsyfC8YUSI0ppjj/TVhhyl8TabjbTkOE3ZQFF1Pc/OW0d9i8wE9HShQQ76xivd7XOCrlyE+UgBYE2GC4CoEFkCONCWwnLlT/+zZ4xjwWv30EvjBUsFVXU8PWet7AmwgCG9lIrHPihcCibMTQoAazJ8S40sAfzE5Xbz+fodSjFsNht/vuFsBvRJ5psX7iRK4wmLkpoGnvrvGiobmrXFFN3P0BTl2aPxOvIQ5iMFgDUVGR2YLF0A/2dpTiElik14Zs8Yx9ih6QCMHZrOp0/fTrDGUxbl9U08NWcNZXWN2mKK7qV/QjRBjgCVEON05SLMRQoAa1poZJDdZmNAUozmVMypua2dbzep7fzf/+n/QDMnDuftR27Cbtd33VJVQzNPzVlDUXW9tpii+wiw2+kXp7QPQAoAi5ICwJqWA+u7Omh0WiLRobIEADAnc7fycbszp//06f9A586ayDN3XaEU+2C1Ta38c+5a8iu8f0+B8D3FjYBjdeUhzEVp3kiY2kbgSjpZBIYEBnDttDGqncd6hKrGZt5YugWX2204hs1m493HbiIloeMZlaNH9sftdrNoTZbhZxyszeliza4S+sRFkRgpSzk9SWNrOxvy9xodHg68Bkh1aDFSAFhXAbAbOJMjFAGBAXZumHYUfdSmGXuMj1Zns6eyTinG2SdM4NZLTznsn5l+9HBKyqtZm6mvxbDT5Wbt7lKiQ4Pl77MHCQywsyh7j0qIRUC2pnSESUgBYG0b8ewHmAx02FIsPSGaG2eMJV3jETUzyy2r4ZN125ViOAIC+PjJW0mIjTzin/3V8Uexq7CMjdvzlZ55IDewubAcN24GJcehb7eB8Jew4EAWZe+hzWn4gM82PEWAsBBp6i4WA8PxNAQ5ITU6/MReMRHjk6PCGZYSR/9E2fS3n8vt5sNV23ArTP0DXPPraQzN6Nx9THa7jVcfvI52p4v3vl2m9NyDfbc5j8qGZi6eNJwAjZsOhe/ZgL7xkWQVVxoNMVBjOsIkZAZAgOdDYS4w99FzpoWP7Zd88uDkWGLDQ/ydV7cyb1s+q3eVKMWICAvhk6duIyKs899bu83G7Jnj2ZlfyuYdStO8v1BYVU9eeQ2j+yQSGCB7gs0sv7JO5Trqejz7AISFyG+8+Dkbss2/A5UNzXyr4cKfP1zxK0Md/wLsdt546HrOnTVROYeDZZdU8vSctVQ3StdAM0tS29g5QFcewjykABA/48Ytc8Ed+GhNNq3tTqUYSXFR/P7yXxke7wgI4P0nbuHyM6Yo5dGRwqo6Hv12Rbe51Eh0XWKkUhfJZDynAYSFSAEgfs5tk2Whg2zaU8bmgjLlOH+95VwiFZdVAux2Xn3wOq4+e5pyPgerb2njuXnrmJO5S3ts4X1Jal06bUCGplSESUgBIH7GZpcZgAO1tDv5aI366ajRg/tqe9MOsNt5+f7fcPOFs7TEO5DL7eaL9Tm8v3IbTpfhHeXCD+LCQlT3ccgygMVIASB+zmWTn4kDfL1xJ1WNapfp2Gw2nr37ChwB+iZXbDYbz9x1OXdceZq2mAdamlPIP+euo7ZJrhQ2C5vNRoLaZVJyK6DFyIu9+BmXXY6F77djbxUL1ZqrAHDp6cdx/LghGjL6OZvNxuO/v4gHbj5Xe2yA3LJqHv9+JbulfbBpKJ7cSdaVhzAHKQDEz9jcsgQA0Nzm5J1lmcpn/qMiQnns9os0ZdWxP19/Fv/+yzUE2PX/Olc3tvD0nDWs2Gn4AknhQ5EhQSrD43XlIcxBCgDxMzYb7f7OoTv4ZG02FQ1NynHuv+kcQ8f+uurac2bw6T9vI0ztDaBDbU4X76zI5K1lW2lRPAkhvEsKANEVUgCIn3Pb2vydgr9tK67Q8ol3xIA0r2zUO5Qzpo1j3qv3kBBz5BbDRqzKK+bx71ZSUKV2D4LwHikARFdIASAOYu0CoKGljXeWZ6I28e9Zn3/hz1cR6PDtqcpJowaw8PV76dPLO6/lpbWN/OOH1SzK3qP8PRL6KRYAcbryEOYgBYD4GbfbZekC4MPVWdQ0qXfEu+G8E7yy8a8zhg/ozYp3H+Dokd7Z1N3mdPHRmmxeWrSRhhZL/7h0O4oFQIcXgomeSwoAcRDrzgCszitm3e5S5ThpyXE8ctsFGjIyLiUxhgWv3cs5Jx7ttWdsLijj0W9XkrNXugd2F+FBgSrDZQbAYqTrm9ivN3DGroqaM6ubWobWNrUSGRJEkI+nsP1lb20j/160EadLfWL77UdvZPTgvhqyUhPoCOC8kybR1u7kx3Xeueq9ua2dVXmeC5IGJMVgs8khEn9qbGtnyfYCo8MDgMdANgJbhTVe3cXhpAOvAv8Czi2raxqaXVLJ+vxSFmbtobqpmf6JMQRqbGLT3bQ5XbywYL1ywx+AC085lruvna0hKz1sNhsnTBpBRloS3/24Aafx++IPyQ3sKK1ie2kVg5JjCVP7FCoUtLQ7VXtXPA5I9yeL6Lmv6qIzjgcWA2PpYDnI5XaTX1nH2t2ljEhNIDy4Z76wf7I2m82F5cpxEmIi+fK5PxAe2v0uVBwzpC/TJgzjm0UbaGz2zq1/VQ3NLN9ZRHhwIH3io6SjlB+0OV3M35avEuLvgPr5V2EKsgfAugYCXwNHPKRe2dDM8/PX09Ta82YG1+fvZbHxKdOfefpPl5EUF6UlljccP24Iaz580GubA8HzCfSDVVm8MF/PjIroGsW7AAB6ZpUvOiQzANb1ATC8s3+4qa2dVqeTEak9Z6NwRX0TLy7cQLuGafHzT57ktZa8OkVHhHHZ6VMoqahh/bZdXntOeX0TK3KLiAwJIi0uUmYDfMbGD1vyVAL8E5DezxYhBYA1jcIz1dclxTUNTBvSF4f6pwy/a3e6eHHhBsrr1Wc7eyfF8vXzdxDqhS583uBwBHDm9HGkJMYwZ/lmr+wLAM/3eHNBGbll1QxIipG9AT5gt9v4fnOuSojngGpN6Yhuzvyv5MKIk4wMam139pgjXx+uztJyyY3NZuPVv15HXHSEhqx867pzZ7Lw9T+Tluzd01/ZJZU8/M0K5m3bjUvxbgVxZIrfYanSLEQKAGvKMDqwtLZBZx5+sWRHAcs1XW5zy0WzOGnyKC2x/GHSqAGs+fBvzJzY6dUgQ1rbnXy2bgd//341eyqllbC3uNSPsTp05CHMQQoAazJ8Z2h9s7n7BO3cW83Ha/SciR/WP5VHb79QSyx/SoqL4oeX/sQDN5+Lw8vHPfMra3ni+1V8tCabpraet6nU3zTMsMhfioVIAWBNNUYHNraatwCoaWrhtR83a2n2Exzk4J1HbyI02Bzr/kcSYLfz5+vPYslb95HRO9Grz3K53SzK3sODXy1jZW6x3CmgkdOlvJ+jUUcewhykALCmSqMDG016FLDN6eKlRRu19PkH+MedlzJ2aLqWWN3JpFEDWPX+g5w5fZzXn1Xb1Mrby7fyzNy1FNeYf2mpO9AwAyBnNy1ECgBrMryTz4wzAG7g/ZXbtGz6Azh31kRuuuBELbG6o/iYCD775+08/cfLCA7y/pLwjtIqHvlmBf9ZnS2XCynSMLslBYCFSAFgTYZnAMy4bvv95jxW5RVridU/LYmXH/iNlljdmc1m43eXnMyyd+5nWP9Urz/P5XazePseHvhyGQuz8rUs01iRhp4W0gXQQqQAsCbjMwAm+4S2ZlcJ327aqSVWUKCD9x+/heiIMC3xzGDs0HTWfvgQv7/8VOx277fzaWxt4+O123n4mxVsLVJvz2w1igV6K+DUlIowASkArMkSewB27q3mneWZ2jaZPf77i7zaRre7CgkO5O93XML8V++hf1qST55ZWtvAiws28My8ddqWbqxAcYlOpv8tRgoAazI8A9Dc1o7bBM1cyuoaeWnxRtrVd0UDcMlpx/G7S07WEsuspo4fyoaPH+b682b67Nrf7SWV/P37Vby6ZBN7a2WD+pEoFujyDbYYKQCsyfAMgMvtprmte88S1re08cKCDdo2lI0Z0pd//+UaLbHMLiIshBf/fDXfvngnvZNiffJMN55Lm/729XI+WLVN20mOnkhxBkDWXCxGCgBrqgEMfzSub+m+14W3tDt5ccF6yur0fJiJi47gk6duI8wkff595eTJo9n06aNcOXuqz2YDXG43P+4o5P4vlvLp2u3UNnXfn0N/UZwBKNOVhzAHKQCsyYnCjV91zd3zhdfpcvHK4k3a1oztdhtvP3Kjz9a9zSY2KpzXHryOha/f65OTAvu1OV3Mz8rnvs9/5P2VMiNwoCa1GYBSXXkIc5DbAK3rOsDQHO6I1AR6RYdrTkeN2+3m9aVb2Vyo70PMQ7+7gKvOmqotXk/VLyWBa86ejt1uY8WmHB3d6DrF5Xazp7KOH3cU0tjaTlpsJMEOa7+krdu9l/xKwwXwAuA7jemIbs7avy3WdhGQZmTgwORY+sVHaU5HzSdrt7MiV88FPwCXnTGFf9xxibZ4PZ3DEcCMicO54NRjyMwpIE9jIXYkTpebvPIa+EdvnQAAIABJREFUFmXvYW9dI6kxEYQHW/NSuyXbC1SWv74GFmtMR3RzUgBY12nAMCMD+8ZHMTjZNxvAOuOrjTuZt223tniTjxrEx0/e6vWLcXqi+OgILjtjCr2T41i6fjvNPuwb4XK7KayuZ8n2AvbWNpIYFUaUxfZuzM3cpbJE9x9grcZ0RDcnr3DWNRU42sjAXtFhjPTyhTGd9d3mPL7bnKstXr/UBOa8dBfRkdZp9qObzWZj/PAMrjhzKmWVtWzascenz3cDRdX1LN1RwO6KWmLDg4kLD/VpDv7y1cadtBnvBvgakKUxHdHNSQFgXeOBGUYGxoSFMD69l+Z0um5u5m6+2pijLV5EWAj//fefGNAnWVtMK4sIC+GsEyZw6vFj2LKjgIJSw6dPDSura2RFbjFbCssJdNjpFR2O3UenFnytpd3JN2pdL58FfFutCb+SAsC6BgNnGhkYGhTI5IG9NafTNQuz9/Dpuu3a4gU6Avj06duZMnawtpjCo3dSHFefPY0RA9NYvSWXGk1HNLuipqmFjXvKWJpTSENLG72iwwkJ9P5FR75UXtfE4u0FKiH+DNRpSkeYgBQA1pUCXGxkYIDdzoyhfTWn03mLt+/h4zXZ2uLZbDbeeOh6fn2CoRUR0Qk2m40RA9K49pwZBNjtrN6SS7vT9w2lWtud5JZVs3h7AWX1jcSGhRAdFuzzPLxhT1Udq/NKjA5vAu7SmI4wASkArCsKz1HALmt3ujhlZIbmdDpnbuZuPl27XVt/f4C/33EJ1583U2NEcShBgQ5mTBzOJadPpmhvNZk7C/2Sh8vtprCqnqU5hfuOjtpIigrHEWDe1ihZJZVsLTTczG8H8LzGdIQJSAFgXTbgD0YGutxupg/tQ6CPd8l/symXrzfqudlvvzuuPI37bjhba0xxZDGR4Zx30iRmThrBjt0l7Cmp8FsutU2tbCksZ1H2HiobmokODTblrMDqvGJ2GW+CtQJ4X2M6wgSkALCuJuBePIVAl01I70VUqG9eJN3AZ+u2M2frLq1xLztjCs/fc6XPWtmKX+qXksDVZ09jwoj+bMstpKS8xm+5OF2exkL7ZwWcLjcJkWEEmaS50IKsPZTXNxkd/v2+L2Eh5vjJFt7gAm4CIowMHtk7kaQo7x+VcwMfr8lmYZbezcknTBrBB0/8Vs76dxOD+/XiunNnMmJgGpuy86moqfdrPrVNrWQWVTB/Wz45e6sBSIoMI8DefZcIvtqwk+Y2w3cBvAes0piOMAF59bO2SwBD5/kGJsXQ18vdAF1uN28vz2RZjt514okjB/Ddv/6P0GBrNYnp7vZvFLzhghNI6xXPhqzd1DYY/kSrhRuoqG9iU0EZS3YUUtnQTHhwILFhIX7N62Ct7U6+3KB0JPYFQN+xGmEKUgBY22xgkJGBvWMjGdIrTnM6P3G6XLz+4xbW7dZ7P8mQ9BTmvnIXMdLop9uy2+2MH57BjRecSGx0BOsyd9HYDS6ganO6yK+sZfnOIlbmFlPT1EJoUCAx3WC/QFF1Az+qFcp/Q64DthwpAKxtOjDOyMCEiFDG9PHOLXnNbU5eWbKJzcZ3NHeoX2oCc16+i9TE7tPGWByawxHAsWMGcdOFs0iKj2ZrToHfZwT2a2prJ7eshmU5hSzPLaKyvongQAex4SHGNtUo2l5axcY9e40ObwHuQOGKcGFOUgBY22jA0Pm38KBAJnnhCtjKhmaembuWPM2bwfqnJbHwtXvpl5qgNa7wvqBAB8eMHshNF55I35QEsvKKqKxp8Hda/9Pc1s6uilpW7CxiVW4xVY3NBNjtnmLARxtM1+SVkFtWbXT4ZuBFjekIk5ACwNrSAUNn4Ox2O9OH9NGaTGFVHc/OW6eyk7lDfVPimffqPaTLm7+pOQICGD88g5svPInxIzLIyS+hyPibnlc0tbWTV17Dytxi5m3LJ6+8BqfLTVx4iFePzc7J3EWF8d+bH4AvNKYjTKJn9cIUXbXL6MDqxmbcGDxD2IHNhWW8/uMWWtv1dofrl5rAgtfuIT21e1xeJNTZ7TbOmDaO06eO5ZvFG3j01S9ZtmGHv9P6hdZ2J1sKy9lSWI7dZmNgUgwj0xIZ3y+ZaI1HaN3AnkqlDr6bNaUiTEZmAMTtRga53G6mDUnTckZ6buZu3l+5jXaX3iXIvinxLHjtXjK6yc2FQi+bzcbg9BSuPns6048eRmV1Azl7SnDrbBOpiRuoaGhmW3EFC7P2UNfcysDkWBwajhVW1DcxJ3OXSoi/A/qu1BSmIQWAtdXj6f9t6OdgbN9kpR3QTpebd5ZnMm/bbq2tfQHSkuOY/+o99E/zzkZF0b2kpyZy0a+O5dLTpxDoCCArr4jmljZ/p9UhN7C7opatheWM7ZesXERnl1SyPt/wBkCAO4Hus6lC+IwUANbmBq4GYowMHtorjpQYQ32EcLvdvLR4o+oLV4f6psQz75V7GNhXrvW1mtiocE6aPIpbLjqJfqkJ7C4qZ2+l4fa4XlXX3MruilomZaQobRZcmVtMbpnhTbMlwF8NP1yYWvdtayV8ZbfRgSqb9eZn5bNF8zE/8JzzX/zGffLmb3HhocFcd+5MNn7yCPNeuZtfn3h0t+zit6O0itW7DN/gByiv/29Sergwte73GyF8bZfRgUZ3Hbe2O/l+S57Rxx7S+OEZLH7zz/RNidceW5jXjInD+fjJW9n53VP86ZozSIz1bgfLrlqyvcDwWLfbTb7aDMcalcHC3OQUgPD5DMCWwnKaWg33LO/QtAnD+OKZ3xMVEao17qE4XS4ydxayc89e2trbCQkOZFhGb5l58LLcgr1syy2isbmFQIeDjN6JjBjYu1N3OvRNiefhWy/ggZvP5ZvFG3jj80V89+NG2jSfPOmqXRW1tLY7De0FKKyuV/1dWq4yWJibFADC5wVAQZXSlOUvnDFtHB/8/Raf9PbfkV/CKx8v4J1vllLcwRn0wf16cfnsqVx91jR6JUR7PR8rKK+u4/XPF/PmF4vJ3PnLdrdJcVFc/KvJ/OacGQwf0PuI8QIdAZw1czxnzRzP3spa3v1mKW98vpjNO/ReONVZbrebioZmUqLDuzx2/0VFRh+NFACWJpsARRxwuZGBLW1OThqRgb2LG5hW5hZTWK3ntrfLz5jCu4/dRHBgoJZ4h9LudPLEG99wwR3PsnhtNvWNzR3+uYqaeuav3MornywkLjqcccPS5bphBR/9dyWn3fgEXy5YS9khCseGphZWbMrhpY8X0NjcyvHjhnT6lsfw0GCOHTOIGy84kdOnjSU40EHOnr00tfj27oGJGSmGLhiat203Jca7ImYDTxgdLMxPCgARAPzOyEA3cMyAVMKCuvbmu3pXicqLFuA5A37fDWfz1B8v8/rmrpr6RmZd+yhvfLEYp7NzvQpaWtv4etF6tu8qYfbM8di74Qa07szlcnPt/a9wzzP/6fRFQC63m6Xrt/Pt4o2cM+towkK6dkQ1NTGWU48/ilsvPZkxQ/rR2NxCXkEZLh80FpiQ3ouELi5fuYGP1mSrNM/6CukAaGnyqiR2A4YPTBvZCKja7c8REMCLf76K+286x+ufrhuaWpj92ydZvtFYp7kPvl/Oxf/3PO1O/64zm4nb7eaWh9/gtc8WGRq/PmsXs659hAqDs0zBQYGcO2siXz13B6WLXuCNh27g9GljCQr03oppi4Hfib21DdSp3ZK4TGWwMD+ZmxQAO4CBRgZeNGkYxw30rLtWN7ZQVF1PSW0De2sbaGhpx+l20dLm2eAUERxIVGgwa3eVGN4/EBMZxsdP3cbMicMNje+q8//wDB/PWaUc597rzuKvt5yrIaOe74k3vuGPT76vHOekyaP47sX/01YkVtU28OXCdXwyZxVzlm+mReNG1mP6pxIbHkJ1YzN1za20OV0EOwIIsNsJD3aQGBlGYmQYvWMjiA/3zBQszSnk/ZXbVB47EtiqI39hTlIACIBvgVONDDyqTxLxEaFkFpVT7IMb2l6+/zdc8+vpXn8O/PTpXQdHQADL3rmfCSMytMTrqbJ3FTPuvHu0rcH/+y/XcO05M7TEOlBNfSNfLVzPJ3NW8cOyTT7tOpgYGcbw1HiKquvZUVplNEw1EI9cAWxpUgAIgH9icB+Ar739yI1cctpxXn9OY3MrGSffRlmVvi5yE0ZksOr9B7XF64lO/M3DzF+VqS1eVEQoed8/TWxU13fYd1ZdQzPfLFnPXU9/yO4i/c2tvORb4DR/JyH8S/YACIAcfyfQWb7aTPfWl0u0vvkDrNmax+K1WVpj9iQbsnZrffMHqK1v4pVPF2qNebDI8BAuPOVYhqSnePU5ms31dwLC/6QAEODZA2AKvjhR53a7ef79OV6J/ey7P3glbk/w7Hve+d68+MFcnJpvmuwBpAAQUgAIwEQFgN3m/R/ZbblFbN1pvD3r4Xy9eL3Pz5ibgdPl4rN53ulKu6uojDVb9beeNrFSYIu/kxD+JwWAAM99AKZ4V/LFDMCitUo7qw+rpbWdVZt3ei2+WW3Mzqe6rtFr8Ret8d7f6X4282ypmgPab+AWJiQFgABwonApkC/5oqvekjXZXo2/cLX334zMxttv0IvXyN6LA3hnfUuYjhQAYj9TLAN0te2wETvy1a5nPZLcgr1ejW9GO/NLvRo/x8t/pyYz398JiO5BCgCx33Z/J9AZvpi3LK/We1nRwcrUrm/tkbz+Pdd8AVVHTHLlQybgnQ0uwnSkABD7meIoYLMPNtAZbSHbWd5+szMjb3/Pq+sapR2zh0z/i/+RAkDsZ4olgCYfdFzz9ic5uR3wl+R74jMZSAM4sY8UAGK/Yf5OoDOa1C4/6ZSEmEivxk+MjfJqfDPy9vc8Ljq801cEG9Xc6rt2wArOBO70dxKie5ACQAAMAR7zdxKd4YsX2YRY774ZJcREeDX+wWrqG6mqbcDtg2ttjUqI9e73xNsFBkBjkylO0gI8BIzzdxLC/7x3v6UwCxvwAhDi70Q6wxeXrgzsk8zqLblei9+/T7LXYu+3MTufZ9/7gW+XbKCkvAaA6IgwZkwcxk0XzuLEY0Z6PYeuGNC3l1fjD+zr/e95Y3OL15+hiQN4CZiE5wiwsCgpAMTVwEydAR0BdqaOzuDoIWn0TogiODCAmoYW9pRVsyqrgPU7img1cP85+GYT4PHjh/L+d8u9Fn/60d5bbXG73dz33Mc89trXv9j0VlPfyOfz1/L5/LVceMqxvPzAbwgPDfZaLl0xdfwQ78af4P0VLpX9KXabjaF9E5k0rA+D0xKw221EhgaTU1jBptwSftyyi2aN1w8D44HfAk/rDCrMRQoAa4tC49R/XGQofzj/eG48YxKxkaGH/HMXPvgBHy7cZOgZvtgDMM2LbxbBQQ4mjhzgtfi3PvoWz3XiHoMPvl9OaWUN3734fwQF+v9lYMzgfsREhnmtG+C0CUO9EvdAKj+b795zARfOGH3If19V18Q7czfwyPsLKa7QdorkQeBdoExXQGEusgfA2m7Ecye4srOnjCDn7Tu4++Lph33zBwgPDTT8HF/sARjWP5XRg/t6JfbsGeMJCTb+3384Xy5c16k3//0WrMrk4Ze/8EouXWW32zhn1kSvxE5PTWT88AyvxD6QyhJAVNjhZ2JiI0P57dnHsu3127nudG3fpwjgNl3BhPlIAWBdocDtOgI9fM1JfHL/xUd8498vPCTI8LN8MQMAcMvFJ3kl7u8uOcUrcZ0uF3988v0uj/v7G99QVdvghYy67tZLT/HKccDfXnISAT64RlrlkqfO/k5Eh4fw79vP4oVbZ+MI0PLfdDMQrSOQMB8pAKzrGkB5Z9STN57GXRdP79ILt0oB4KujVpecNpnkeL2vi5NGDWDyUYO0xtzv7a9+JHtXcZfHNTa38sWCtV7IqOtGDkzjxGNGaI0ZExnGVWdN0xqzI06XixaFNfqu/k7ceOYkXr3jHB0FUzSeIkBYkBQA1nWdaoA7zj+e2889rsvjzDADEBocxL/uu1pbPEdAAM/dc6W2eAdyu908+ea3hsdvyNqtMRs1z959JaHBxn8+DvaPOy8lJjJMW7xDUf25DAvp+rLQ5SeN5eFrtMxUXYs0B7IkKQCsaQwwSiXACeMG8Oi1JxsaGxFq/AW+0UcFAHjW688/eZKWWHdfN9tr69A/LNvMlhzj7d3rGpo0ZqNmcL9ePPjb87TEOuW40Vx11lQtsY5E9efSaFH8xwuncvYU5VmTdGCKahBhPlIAWNNlKoOjwoJ560/nGV5XVZkB8PV69WsPXq98KuD8kydx73WzNWX0S8+//1+l8TGR4Zoy0eP2y07hpgtOVIpx1NB+vPPoTZoyOjLVHgDhBmYAwNNC+eU/nE1CtPLf4aWqAYT5SAFgPTbgIpUAD141i9R44+1sO7tZsCO+LgDCQoL48tk/MGWssXPql50xhXcfu9lrbWiLy6r5YelmpRhHj+qvKRs9bDYbz959BdefZ6w9xYQRGcx9+S7ion3XcbGpWW1vSnS48T5c8VFhPH6d8ubS8wDvHE8R3ZYUANYzEkg1OjgtMZobz1SbFo+NME8BABAZHsL81+7mkdsuIDioc2fmYyLD+Nd9V/PmQzd4dQf6W18tUbrlLiYyjDOmdb+usDabjRf/fDVfPPt7UhNjOzXGERDAH68+gyVv3ufTN3+A6jrjP5cRoUEEOtQKxCtPHsewvkkqIWKBo5WSEKbj/w4gwteU5lZvO+c45ReruCjjBUBNfSNOl8snx7oOtP/N5dxZE3nts0W8/dWPFJRW/uLPDeufyhWzp3Ll7KkkxXn/0p+3vlyiNP6G80/oNt0AO3LGtHEc9+lg3vxyCW98vpjNO/b84s+kJMZwyWnHcc2vpzMkPcUPWapdZ6xSEO9ns9m49ZzJ3PDU5yphTgCWKScjTEN2flrPV8DpRgYGBzoo+fhuYiLUrg3YVVJFxiVPGB5f8eO/iY3y77q10+Vix+4ScvJLaWppJTI8lCHpKWT0TvRZDhuz8xl73t2Gx4eFBJH7/dM+KVR0yS+uICuviJr6RkKCA+mflsTQjFSfF4QHe/urH7ninn8ZGjsyI5nNr9yqnENTSxvJ5z5MXaPh/QiLAe+fmRTdhswAWIsdMLwt+qQJA5Xf/AHiotSOZVXW1Pu9AAiw2xmakcrQDMOrKcq++3Gj0nhfzVLo1Dclnr4pWppXalVRY3wGICZcfQYAIDQ4kNOPGcr78w3/XByDp0FY9zkWIrxK9gBYy0A8/f8NOX/6oXuVd0VkaJBSF7PKmu7Ruc7fvluyQWn8b86ZoSkTUaVSAGgoqvc7d6rSLY9BwHBNqQgTkALAWtTO/o/Vc4mNzWZTOglQWlGjJQ8zq6lvZMWmHMPjjx0ziKOG9tOYkbUp7QFQ+F042MyxA7CrdQdUeo0Q5iIFgLUY/gg/sHc8KfGR2hJJVDi3XFxerS0Ps5q7YittBq9UBrjw1GM1ZiNUlgCSYvQtZ8VEhDCqfy+VEFIAWIgUANZi+Jd78gi9t+OpFBMl5TIDsGRtluGxnpv35MSXTmWVtYbHJsXqPbJ43EilmR2lNQRhLlIAWEu60YEj0pXvDfqZXrHGC4BSmQFgzdZcw2OPGT2w02frRecU7q0yPFbld6EjI/op9QOQdSELkQLAWgxvWVdsMvILveKMf+opsfgeAJfLzfptxi/wmXG07PPSTWVZKlnzDMDQvkpHUXvrykN0f1IAWIcDSDA6eHCa4aEd6hVn/FNPcZm1ZwD2lFQo3T0/faIUADo1NrdSW2/85Fyixj0AoPy7GoHCSSFhLlIAWEcvwHALv1SNGwBBrQAosfgSQM6eUsNjbTYbE0fqOc0hPAr3/rIjZFekKPwudKRXXKTqSQD/NbcQPiUFgHXEGR0YEuQgMkxvu1iVF73i8mrcbrfGbMwlv7jC8Ni+KfFEKlw8I35JZVOqzWYjIVqtMdbBHAF21aOF3a/TkvAKKQCsw/CrvsqRvUNR2QPQ3NJm6ZMAlQpHzob3lyVe3VSWpOKjwpTv1uhIUozSvgKpEC1CCgDrMPyRIMzgXeWH0zcpRmn8rqIyTZmYj0rXuUTNO84FFJUZPwHQNylaYyY/CQ1W6vIuBYBFSAFgHYZ/qYMc+q+MiAwLJk5hmnJXUbnGbMyl3ekyPDZSU9958ZPdhcaL0X7J3jmOGRSoNKsgBYBFSAFgHYYX8QMd3vkxyUgxvC2BXQovumanco+C0C9P4Wexj5dmABSL9u57P7TQSl5JrMPwuTGXlzbcpfcy/uknv9i6MwCBgcZf3FU2EIqO5RbsNTxWdSnsUJwu47NEKLxWCHORAsA6DB9Ubmxu05nH/6QnG3/x21Vo3QIgOd74p8Yd+SUaMxGgthzVT+F34HCaWpR+Z+U6YIuQAsA6jBcAai8mh6Sy/plXaPxTl9mlJRtfOsnKK2JLToHGbKxtb2Ut9Y3Nhsd7awZA8XdWCgCLkALAOhqNDqxtMP4CdzgZKcYLgN3F5arTnKaVkabU6pVbH32L1rZ2TdlYm8r6P0CfRO/sAahvUprF984vvOh2pACwDsPXldU2tnhlFiBdYQagpbXdshsBh2X0JibSePOYBasy+fVtT1u+pbIOKjNRIUEOkhX6YRyKy+2mtMr4UVEUXiuEuUgBYB0lgOHdfMUVdRpT8eifGqfUsjQzt1BjNuZht9uYNGqgUoxvl2xg2Ow7ueWhN1i6fjtt7U49yVlMboHxInRg73jVlr0dKq9pUP37LNaVi+je9B/wFt1VK1CBwQuBiitrGZBqfO25I2HBgfRNjmFXibFGKttyizhj2jitOZnFKceP4Ydlm5Ri1NY38cKHc3nhw7mEhQQxJD2VtOQ4eifHkpIY+7Oz5MFBgfTpFc/0CcOIV+sy16Nk5xUZHjukj9pSzqEUlSsV682A2uUGwjSkALCWEgwWADmFlUwZma43G2Bon0TDBYDKi6/ZXXjKMdz59/dod+r55N7Y3Mr6rF2sz9p12D/nCAjgktMm8/CtF5CS6J0NbGaSudP4LNRQLxUAO9ROyBSjMFMozEWWAKzF8DtmVr531ttV7i5XefE1u+T4aE4+bpTPn9vudPLml0sYd/49rN6S6/Pndycul5sshSJU9xXb+yn+rsr0v4VIAWAtO4wOzNrT/QqAbXlFlr4V8O5rZ/vt2aUVNZx20xOWvpNhV1EZDU0thser/OwfjuLv6nZdeYjuTwoAa8k0OnDTTu98MBim8CJYW99EkYV3sh87ZhCzZ4z32/PLq+u4/bF3/PZ8f9uWq7YE5a0ZgE25Ss2etunKQ3R/UgBYi+Ff7rySKkoq9Z8EUP0UpDIF2xM8evuFhIf6r3X7lwvXKbXCNbOtO403VOoVF0lMhP47d2obW8jcpfT3YfhDgjAfKQCsRam6X7Ftj648/icpJoL4KONn2jdm52vMxnyGpKfwzF1X+O35brebb5ds9Nvz/Wmbwh6UIX288+l/RWa+6t0dMgNgIVIAWEsJYPjjwfIteRpT+cmwvkmGx67L9E5OZnLVWVO57Iwpfnt+jkXvF1DpQ+GtI4CKv6N1wC49mQgzkALAepYZHfjDymzwwqa7EenGC4C1UgAA8NqD13HRqcf65dkBduu9jLQ7nWxVuFNhdP9eGrP5yX9XZakMXwlIRygLsd5vrjBcAGzKL6dg926duQAwblCq4bHbd5dQU2/4moMeI8Bu542HbuDcWRN9/uzeCpcTmdXWnEIam43321f5mT+UypIiVu4oVQmxVFcuwhykALAewwWA2w3fLd8GLQ0682H84N6Gx7rdbjZk6S9KzCjQEcCHf/8tj/3+IgIdAUceoMkJk0b47FndxZqtxnsg2G02RmVongFobeSH5Zk4XUozdIZfG4Q5SQFgPWsAw4eXP16VCzVl0Gb8/PPBRmYkE6TwhrU2c5e2XMzOZrNx55WnsfjN+xg5MM3rz5s2YRhjhvT1+nO6G5Wlp0Fp8USEBulLpr0VqvfyySql5TAnsEJTRsIkpACwnhZgodHBczcXUVhRBzUl4NJzpWxwoIMR6cmGx8tGwF+aNGoAGz5+hA///lsG9DH+vT2ckOBAnvq/S70Su7tbtXmn4bHjBhmf8foFlxNqSqmqb+Lr9UonYpYjtwBajhQA1vSN0YEut5sPV+SC0wmV+ooAlTVR2QjYMbvdxnknTWLr54/x6dO3c9bM8QQF6rn+IywkiI/+cStHDe2nJZ6ZNLe0sUVhA+DYgZrW/11OqCqB9jY+XJ5LS5vS/j3DrwnCvKQAsKavVAa/uiDbcxjA2QqVReBULwJU9gHsyC+htr5JOYeeKijQwVkzx/Pp07dTOO853nv8Zm664ERGDEjDZuA62iljh7D83Qc4bepRXsi2+9u4PZ/WNuM/82MGaFj/d7VDVTG0e5biXluo3MFXCgALktsArWkXsAUYaWRwZmE1P2wq4JQxaZ43/8oiiO0FDuPrmiozAC6Xm+WbdnDy5NGGY1hFfEwEF55yLBee4jkyWN/YTF5hGbkFe8kt2Mveiloam1toaW2nuq4BtxtsNkiIiaRf70ROnjyK0YOtt+Z/INVLkJRPADj3vfk72wBYnFXC6lyl/v/5wGa1pIQZSQFgXZ9isAAAePLbzZ4CADyfRiqLIDIBQo3dFT+6fy8cAXbanS5D4xet3iYFgAERYSGMGtSHUYP6+DsV01izxfj6f5/EaBKiw40/vLkeasvB/dPvyVPfKr93f6oaQJiTLAFY19so3Ps9d0sh6/IOuHfc7YLavVBbZihsaHAgRw1MMZoOi9YoNUARotMWr802PHbyCIN7Jtxuzxt/zd6fvflnFVXz5VrldthvqgYQ5iQFgHXloND4w+2GP7y78pf/oqkOyvKhqZ6uFgJTRqYbTYc1W3OVrmYVojPyCsuUrkCeMspAAdDSCBUF0PTLTfp/en+1au//zcAGlQDCvKQAsDalyn9hZjHfb+xgN7TL6ZkNqCyCtuZOxzt+VLrTGtgIAAAgAElEQVThXNranSzbsMPweCE6Y8EqtcvyulTktrZAVRFUl/xvvf9Ay3fs5ct1yk2wXlMNIMxLCgBr+w9QrxLgzvdW0tp+iHX7thZPEVCxBxqqwXX49f0po/oZ2pW+3+I1cpGZ8C6Vn7HIsGBG9T9CTwa327POX1kIVYXQ2nEB7XS5ue2t5apXc7QA7ylFEKYmBYC11QKvqATYsqeKhz5ff/g/1N4G9ZVQvtvzaaaxxtO97KAlgqSYCAanxRvORfYBCG9bqFAATB7Rt4OLk9ye34XGGqguhbLdnnX+I3TafPLbzazaqbTzHzz7gAzfDirMT04BiH8ANwOBRgM8/MVGzhjXjwn9j3DHudvtWc9s2Xd5j80OAY59X4FgD+D4Yalk7yk/fJxDWLVlJ43NrYSFaGyzqkl1XSNzV2xhS04BDY3NpCTGMnX8UMYPT1ea9TC7rTsLWLQmi+K9VQQHBzJiQBonTBpBVESov1P7hZz8UvKLKwyPP25wMjRUeWbCnG2e0zPO9iPOjB0su7iGv3y8znAe+7iBp1SDCHOTAkAUAB8BFxsN0O50ccWLC1nx4GwiQ7pQR7hdnk8/7T/dqnb8gFjDUxKtbe0s27CdE48xfLpRu5bWNh566Queevu7DjcpjhrUh3/ceUm3ytkXlm/cwR+eeJcVm3J+8e/CQ4P53SUnc+/1ZxEa3H2KOZVP/wCT+0VBfZVSjKbWdi59fgFNrcrNt74G1DY0CNOTJQAB8AQKRwLB0xzosucXqu5I5vihal3Svv9xo9J4ncqr65h+1d/420ufH/KEwuYdezjlhsd48q3vfJyd/7zy6UKmX/W3Dt/8ARqaWnjklS+ZesWDlFbU+Di7Q1u02ngB4AiwM2lgotLz3W74zctLWJNrbIbsII/rCCLMTQoAAZ5jQO+rBvli7W7u/c8apRgZiZGkJ0YaHv/VwiPsR/ARp8vFBXc8y8pOXBrjcrm58x/v8Z8fOjhW2cN89+NGbvzra7S1H7lv/drMPM65/Wmltru6uFxu5q3cYnj8xAGJRHRldqwDj3y5gfeWGm9CdICvgR91BBLmJgWA2O+PgHJD/Ue+2Mif3l+tFOPk0Wr3AmTlFSk9X4c3v1jSpSNjbrebq+79N+u27fJeUn6Wk1/KJX98HmcX1ryXbdjBSx8v8GJWnbNiUw4l5cZnI04erXY18wtzMpWL632cwJ90BBLmJwWA2K8AeE5HoMe+2qj0YnXKGLW2tF8t8v8swDPv/tDlMU0trVx457NU1TZ4ISP/qm9s5te3PUV1XWOXx/7zne+9kFHXfL1IbdPdSQpF7SNfbOTm15epHvnb7yVgq5ZIwvSkABAHehgo1RHooc83cMEz86lt+mUDkyM5YWQqQQ7jP5pfL1TeIa2kuKyaTduNtWfNyS/lov97rltMe+vidLm44p5/Gb5Cd+eeUrbvLtGcVdd8sWCt4bFxEcEc3b/r6/8NLe1c+a9F3P2h2ozaAaqB+3UFE+YnBYA4UDVwo65g/1mRy/i7P2N1F88rR4YEMnnwERqmHMayDTsor64zPF5VXqHa+ez/LtvMZXe92KWp8u7K7XZz3f2v8Nk8tenrvEL/HVffvruEbbnGl5VOHNmbAHvXjnpuyq9k4r2f8+Zird0tb0fO/YsDSAEgDvYZGruD5ZTWMum+Lzj/n/PYXd75poMqa6ZOl4vvlvjvNIC9iy/2Hfnovyu5/oFXcWua9/WX3z/+Dq9/vlg5jt3mv5cqlU//0LWf5Yr6Fm59aznj7/mczMJqpece5BvgDZ0BhflJASA68jtA25yr2w0frcxj+J0f85uXlrB8x5E/hJyquA/gaz/uA0hPTdTS3Oe1zxZx2V0vmnI5oN3p5PoHXuWfBvZCdKRf6hGaTHnRVwu8v/6/Jrecm15bSsbvPuCZ77cavhb7EKqA63QGFD2DNAISHakALge+AwJ0BW1saefVhdm8ujCbwSnRzBiewpQhvRifkUBafPjPmgiN7htHamwYRVVd3zQG8MPSTTS3tBESrHb0yoheCdGMGdKXDVnKF7Xw3rfLKK2o4ZOnbuuW3fE60tjcykV3PsdXihvn9uuflsTgfmr9IYwqq6pl+Ubj0/Aj0mJJiwv/2f9X39xGUVUja/PKWbq9lPlbi9im99P+gdx43vz9fzRGdDvW7UEqOuN24ElfPSws2EF4sIN2pxuX201NY+uRBx3GB0/8lvNPnqQpu6555+ulXH73i9rijRnSl6+fv5PeSbHaYnpDWVUts3/75CGb/Bjx7N1XcPOFs7TF64rXPlvEb/7yslKM0CAHIYEBBAfaqW1qo7HFpzM6fwX+4ssHCvPQ9ulO9EgrgDRgnC8e1uZ00djSTnObk5a2IzeKOZLmllYu+tVkDZl13ciBfViwKlOpd/yBSitqePfrpRw1tB/905K0xNTtx/XZnHzdY2TmFmqLOW5YOi/cexUBAf5ZrbzzH+8pb+psd7pobnNS39xOm96p/SP5DM89H+beSCK8RmYAxJEEAwuAY/2dSFc5AuzsmfssyfHRfnn+7qJyJlx4LxXVSjcu/4zdbuP/rjqdv9z4a4KDfL+80ZG2dicPv/wFD730Be1O9cJtv6iIUFa+91eGpKdoi9kV+cUV9D/1NlwuU75/bgCmAD2vqYTQRjYBiiNpAX4FmK5PbbvTxfvfLvPb8/ulJvD+47d0cAWscS6Xm0df/YrxF9yrtDaty9rMPCZdfB8PvPip1jd/m83Gmw/d4Lc3f4C3vlxs1jf/LOA05M1fHIEsAYjOaMZzY+B0PEsCprG3vIrrzz/Rb8/vn5ZEWEgQc5Yb7yPfkbKqOl7/fDGZOws5emR/YiLDjzxIo+Kyau78x3vc/Lc3KC7Tv4Htvht/zQ3nnaA9bldcf/8rVNSY7j10IzATTQ29RM8mBYDorBbgA2AykO7fVDqvpKKWs2eMJTnBf5vnJh81mNKKGtZszdMeO3NnIf/+aD5Fe6sZPqA3sVHeLQT2lFTwl+c/4ap7/82KTTle6VNw6enH8dT/XablKKVRS9dl8cSbpruhcT0wC9ByXaDo+aQAEF3RBnwCDARG+DmXTgsPgJOO98k+xkM6dcpRbN9VYrgd7uG0O12s2ZrLCx/MZeP2fEKCg+iflqRt6cHpcvH9jxu57/mPuelvb7Bsw45O3eZnxJnTx/HuYzf7bdPffg89/yHrsvX/XXnR18BZQKW/ExHmIZsAhVHXAc8CQf5O5EiSYyPY88PTOEJC/JpHW7uTs299im+XbPD6sxJjo/jV8WM44ZiRnHjMSHoldG0jZFlVLfNWbmXu8i18u2SD0k14nTVj4nC+ef5Ov/RuOFBzYwOpJ95KdX2zX/PoJDfwOHA3YP7e0cKnpAAQKqYAHwKp/k7kSL585GpOP22mv9OgsbmVX934OIvXZvn0uSmJMQzv35uhGakkJ0QTFR5KZHgoNhvUNTRT29DE3ooasvKK2JZbREGpbz9ITho1gP++dBeR4f4t0gA++Ph7Lv7rO/5OozPKgIuBuf5ORJiTFABCVQzwIJ5LhLrtktJJEwbx/Yt3/n979xklRbX1Yfyp7smZGQYYMkOQnKMgSDABioioqIgBURAxJ7zqNStmxZyu8SooRvS+BgwYUUBAkZzzkCbH7n4/FCgqabqqq9P/txYLxam9j8B07Tp1zj4QnxTsoVBSVsGpVzzM/75dGOyhhIS+XVry/mNXhUanw/JSBl54N1/8sirYIzkYL/A8cANm104Rv2gboFi1G7gU6AIEb8/dIXw6dwVLflsKIXDCXlJCHO8+eiUjjw1Ol8JQcmK/znz81LWhcfP3efnt18V8ucD+xZo2mo858zYO3fzFopB9YpOwsxV4EViEuVXQ2mk+geDzMaRHC4gL/s3G7XZx6jHdwTD46uffgz2coBh36gBeuusi4mNDo6GRUZzP5CffZ97ykGyb/zNwNXA5sC7IY5EIoVcAEig9gSuB4YTIoVOpSfGse+M60us3gpj4YA/nDy+9P5uLb3ue8orwO/XPHzFuNw9fP5oJpwevP8M/VFWyY81KGo66l9LyymCPZi8P8D7wEDA7yGORCKQZAAmUDZjNgx4HfsX8MGuI2Vo4KCoqPaQlxdO3VT1ITAnWMP6h4xGNGNK3I7N+/I2d4dd4ploa1Mnig6lXMWJQt2AP5S+M/DweePNLPp1r3yFGfioGZmKu7B+HOaumJ34JCM0AiJPigR5AB6Ad0B6zn8Ch7sZFwCpgNearBb839deukcLq164hIbMmJAXnjIADKSgq5aLbnufN//0Q7KEExElHd+aF28eRmR46xRcApQWUbN9G4zPvY7u1AuxHYCOQu+dH2iG+vgRYjNm979c9P/8AlFoZhMjhUgEgoSAe88Myfc8PA/PDsQTYBey7Cb0L5vtQv02ddBKXDOuFr0ZtiAm9NgYffDWP8be9yKa8XcEeii0yUpO454ozuHBE/6B299svTyXGri088va3XP74h1ajtcdcA7NXGuYumSRgb4vGfKBgz8/lVhOKWBFi340ih+UboLe/FzepU4OlL11JbHw8vho5EGo3JWD77kKuuPdVXpv5bbCHYsmIQd14bPK51W5E5Awfxq4tVJSV0ezs+1mfZ6nZ0SwguIcXiFST1gBIOCoERvp78e6iMupnp9OleQ6GzxsSuwL+LikhnlMGdeP4Ph1Yunoz67aE146vNk3r8+Id47hx3MmkJAW/uc/+GEW7oKKMFz6ey2ufW+7OeDmw1IZhiTgm9B59RA7NDSwHmvgboG5WGiteuYrE+Fh8adkQH3pFwF4+n49p//cjtzz+FsvWbgn2cA6qSb1sbpkwgrOH9MblCuGPl4pSjPw8yiqqaHHOA1af/tdgno8RmAMSRAJEMwASjnyYZxAc42+AwtJyaqYn07N1Q4yKMrNDoE2H59jNMAzaNqvPhDOOoUubJqzbvJ31W0LrzJcORzTk3itH8cwtF9CpZePQe9e/L28Vxu48wMdj73zP9K8WHfKSQ7gV+N76wEScFcLfpSIHlYb55OX3Ob+1MlJY+erVpCTGgTvWXBRohGYR8Hez5y3lhRlf8s6snykoCs6i8eTEeE4e0JVzT+7LwB7hcjikD2PXVqiqoLCknKaj7ydvt6WV/9sxj8eO7P2bEpE0AyDhqhxzdXU/fwMUl1VgAAM7NwWfF6OqEuKTw6IsbpRTk5MHdOWys4+nXfMGVFZWsXHbLioqA9tMKCkhjmN6teOmi4fz3K1jOeOEXuTWrxXQnHYyCnZCpXnK352vfcnHc5ZZDXkPOoxHwlQYfNSJHFAm5ixAqr8B4mNj+PX5y2hWLwsAX1I6JIfiivVDq6zyMGfRSmbNWcyXPy1m/u9r2F1YYilmWkoiHVo0pH+PNgzo3pqe7ZsRFxsSjR2rr6QAo3g3AOvz8mk55kFKrHX9K8B8+o+M/ZoSdVQASLi7D7NHut9O7duW6becaf6LAb7ULHMmIAJs3ZHP76s2sXTNZtZt3s7O/CKKSsopKimjsLgUH5CalEDKnh+Z6ck0zKlJi8Y5tGySQ91sv9+whJbyUoyCvD/+9bTb/mvHu/+7gclWg4gEiwoACXd1gJWYrwP89sWDYzm6Q+4f/+5Lzw7J7YHih4pyjIJt4PMB8PXC1Rx95XP49vy7n4oxu/1ts2GEIkERHiueRA5sC/Co1SAXPfguZfscxmMUbIcqNWoLe1UVGIV5f9z8K6o8THjkfas3f4AH0c1fwpwWAUokmAtciIVZgB0FJbhdBv07/jkLYFSUmrMALn2bhCVPJUb+NvB6//ilO179wo6p/13AKKDMaiCRYNInm0SCMszeAH73BQD49re1nNSrFXUy96wp9PnMIiBeRUDY8ezZ6+/9szfP0vXbOfvuaVR5vAe58LDchNn6VySs6RWARIqpwHorAao8XsY/8i6efZ4Y8Xowdpv7xiVMeCrNPzPvn690vD4fF9z/9l9e8/hpA+YR1yJhT481EimqgB3AcCtBNuQV4Ha76Ndhny7DPh9GeQnEJWgmINRVVZhP/r6/duW9942vefF/c+3IcCnmKyeRsKddABJJDOAr4CgrQWLcLr5+eBy9Wjf8W3TDPDcgLjQPt4l6lRXmVj/vX2/+85ZvotfEJ6mostyq/3vMUygtryAUCQV6BSCRxAdchsVDWao8Xs6+axoFJX/bBeDzYeTnQbm6voac8hKM/K3/uPmXlFdy1l1v2nHz92Ke+Kebv0QMzWdKpNmC2Rugm5Ugu4pKWbt1NyP6tv3HfzPKS0P2GOGoVFKAUbxzv7fmix56l8/mrrAjy3PAU3YEEgkVKgAkEn0PXIDF5kC/rt5KenLCP18FgPmuuarc3CEQyiffRTKfF6NgO0ZZ0X7/81Mf/Mgdr35hR6YdwCmAtb7KIiFGBYBEolJgE+aHtiWfzVtJz9YNaFo365//0VOFUV6qxYHB4KnEyN8Olftv1vTD4vWccccbf93R4b+LgB/sCCQSSvToIpHsfeBEq0GyM5L5+clLaFgrY/9fYBj4kmtAYorVVHI4yooxinb+0d3v7zbtKKD7hCfYuL3AjmwfAUPsCCQSalQASCTLAX4DLJ9o07pRLWY/chGZqQd57x+XYB4kpNmAwPB6zBt/eekBv6SwpJx+VzzL/BWb7MhYALTFYn8JkVClTyqJZEWY/dqHWQ2Ul1/MD4vXM2pAB2LcB9g846ky+wW43RATZzWl7Ku8xJzyP0hDpsoqD8NveZVvfl1rV9ZJgC2LCERCkQoAiXQLgI5AS6uB1m7dzdL1eZzary3GgRb++XzmLoHKcoiN02yAVZ4qjKKdGCX5HGwHns/nY9xD7/DWV7/alfkD4Bq7gomEIn06STT4FDgTSLMaaPHabWzeUcjQni0PXAQAeKswSovM7YKx8dopUF0+H5QWYBTugKrKQ3755U/M5KkP5tiVfTNwAuaRvyIRSwWARINS4GfgHGxofjVv+SY25BUwtNchigAwtwuWFYHLpdcCh6usGKNgG0bF4R22d8Nz/8cD07+xK7sXGAHYNpUgEqpUAEi0WId58z/ajmDzV2xi265iBvc44tBFwJ5TBY3yEnMmwB2rGYG/8/nM9/wFO8yC6QAr/P96iY+rnvqI+6fNtnMk9wHP2BlQJFSpAJBoMhvoBTS1I9jPyzaybP12TjqyFW7XYUws+LxmIVBWBPjMGYFoLwR8PigrMhv6lBeD7/D27Vd5vFxw3ww7p/3BXPB3HuYsgEjEi/JPH4lCmcAcbCoCAAZ1bsaMW88iNSm+ehcaLkhMwZeQbM4KRBNPJUZZMZQVQTWb9ZSUVzLqjjd4/7vf7RzROqArkGdnUJFQpgJAolFbzHbBtnXu6dA0h3dvO5vGdfxsORATZxYCCclmYRCJfF6oKDVv/If5fv/vNuTlc/LNrzJ32UY7R1aKeYKkjvmVqKJXABKNtgFLgNOwqQjeuquI12ctoHvLBv4VAV4PRkUZRmkhhmfPqne3O/xfEXg9UF6GUZKPUbjTXAfhqfIr1I+/r2fQNc+zbMN2O0foA84H/s/OoCLhQAWARKslmI2CjrUrYElZJa99voDkxDh6tmpw6MWBB1JViVFeglFSgFFZBh6PuYvAcIf+nJ0P8JRDaTFGcT5G8S6MihLwHHor3wFD+nxMffcHzrzzTXYX+TdzcBA3A1PtDioSDkL940Qk0B4ArrQ76KDOzXj5+pHkZKXaF9TlgpgEfLGx5gJCd5w5SxBMHs+ekxErzC59VeXVfqd/MAUl5Vz4wAymfbnItpj7eA64MBCBRcKBCgCJdi7gNeAMuwPnZKXy9BXDObGX5SaEB2a4zI6DMXH4XG5wxYDbZf5sRxdCH+DzmNP2Xg94PBjeKqiqMm/2h7lq3x8fz1nGuAffYUNefiDCzwROBvx7HyESAVQAiEAcZutX214H7GvUgA48cslQsjOSAxH+4NwxZpFguMzvdsMADHM2Yd+t9j7vnr33vj+f4H3mDd9puwpLueKJmbz0ybxApfgaGIw6/UmUUwEgYkoA3iJAR7/WTE/mjvOPYezgrofXMyAKeX0+nv/oZ2584RPydgfs3vwtcDzm+g+RqKYCQORPccAbwPBAJejQNIeHLxnC0R1yA5UiLH29cDVXPvmR3dv7/u57zJt/QSCTiIQLFQAif+UGXgRGBzJJ77aNuPP8Y+nXoUkg04S8OUs2cPsrs/jwhyWBTvUVcBK6+Yv8QQWAyD85UgQADOl5BNee3pe+7aOrEPjil1XcP202H/241Il0H2D2fLB9D6FIOFMBILJ/LsxjYWs5kaxz87pccWofRvZrS3xsjBMpHVdWUcXbs3/lobe+DfRU/75KgAzA/0YEIhFKBYDIgW0A6jmZMDM1kTMHduTc4zrTpYWjqQNm7rKNvPi/ubw+awG7CkudTl8E2NiMQSRyqAAQOTDHC4B9tWyYzfA+bTilTxu6tKjrf2dBh/l8Pn5etpG3v/6Nt2f/yoqNO4I5HBUAIgcQHp8oIsER1AJgX/Wz0xnUuSkDOzdjQKdc6malBXtIf7EhL5/P56/ks7kr+GzeSrbsLAz2kPZSASByACoARA4sZAqAv2tSpwY9WjWgW8v6dGlej9aNajnWaGjTjgIWr93GgpVb+GHxOn74fX2guvXZQQWAyAGoABA5sJAtAPYnKy2Jlg2zyc3JpH52OvVqptEgO53MtETSkxPISEkkJSGOhLgYEuNj/3JtQUk5Ho+XorIKdhaUsKuolJ0FpWzaUcC6bbtZvy2fNVt3sWRdXiAO5AkkFQAiB6ACQOTAwqoAkP1SASByAOpJKiIiEoVUAIiIiEQhFQAiIiJRSAWAiIhIFFIBIBIAj5zTiyGdGgR7GGHvhI4NePHivsEehkhEisym4yJB1iW3JpOOb8OCtTu58935vDVnNT5fsEcVPnq3qM2dp3elX6scftuwK9jDEYlIKgBEAqhDo0ymXTaQH1Zs4/4PF/He3LVUebzBHlZIinG7GNalEVcNaUev5o6cwSQS1VQAiDigZ7NavHX5QDbvLuHpz5fwxKeLySsIq4Y6AZORFMc5fZtz5eB2NKqZEuzhiEQNFQAiDsrJSOLfIzpz/UkdePP7VbzyzXK+XLwZjze63g+4XQYD2tTl7D7NOK1nLgmx7mAPSSTqqAAQCYKEWDdj+jZnTN/m7Cgq5+05q3n56+V8t3xrRK8V6NKkJqOPasbpPZtSJyMx2MMRiWoqAESCLCslnnEDWjJuQEvW5BXy0S/r+WThRmb9tonCsspgD8+StMRYBratx3Ht63NCh/o01BS/SMhQASASQhpnpzLhmNZMOKY1lR4v3y/fxicLN/DN0q3MW7095AuCtMRYuuZmc2SL2hzbrh69mtcixq3dxiKhSAWASIiKdbvo27IOfVvWAcDr87FkUz4/rczjp1V5LFi7k2Wb89lWUBqU8eVkJNEiJ512DWrQrWk23XKzOaJuOi5DZ4yJhAMVACKBkJiGedimfS/0XYZB63oZtK6XwZi+zf/49fySCpZvKWDF1nyWbylga34p2/JL2VZQRl5BKdsLy8krLD3stQUxbheZyfFkpyWQnZZATkYS2WkJ1E5PpGmtNJrXSaN5TjqpCbGHDmaHBB3mJxIIKgBEAiEhBbJyoGA7VAZ2u196Uhxdc2vSNbfmIb+2oLQSj9dLWaWH0goPAPExLpLiY4iLcZMcH0IfCbHxkFYTSncHeyQiESmEvttFIkxMHGTWhYpSKNwBVRXBHhFpiQ49tVvhjoPkDEjUgkGRQFIBIBJocYmQVQ/KiqF4F1SF9kK+oHHHQFIGJKVivj4RkUBSASDiCMN8LZCQDKXFULwTPFXBHlRocMdAcg3z90cLCEUcowJAxFGGObWdmGK+GigthPJiIrr7z4HEJUJiqlkU6YlfxHEqAESCJS7R/OHxQFkhlBZE/qyAK2ZPAZRmPvmLSNDoO1Ak2Nxuc9FbcjqUl0J5EZSVgC9CTg10x0B8EsQlQ1yCpvlFQoQKAJGQYZg3yvgkSPWZ2wfLS8xXBSGwg6BaYuIhIQnikiA2Dk3xi4QeFQAiocgw/nxFAOargcoy80dF2Z6dBCGybsAwzD37MQnmz3EJ4NLpfiKhTgWASDhwx4A7xVwpD4APKiugshw8FWZB4Knas4YgUIWBYY4jJsbcqx8Tt+fGH4ue8EXCjwoAkbC056k7Nv5vv+4zFxV6qsDrAW8VeL17dhl4zX/e+3V7/9nl4o8buOEyf7gM8yne5TYX7rn3/LNu9CIRQwWASETZ85SuFfYicgg6p1NERCQKqQAQERGJQioARPavC6BzaMNfHHBksAchEopUAIj8VWPgaWAOkBbcoYgN4oBvgU+BjkEei0hIUQEgYsoG7gGWAOPQ90akGQTMBaYBTYM8FpGQoA85iXapwHXAyj0//31fnUQOFzAS+B1zlqdOcIcjElwqACRaxWE+6a/EfPLX+/7oEYv5Z78C888+PbjDEQkOFQASbWIwP/xXYT4FZgciSaXHE4iwUamiKmC/l8mYsz7LgcvR7I9EGRUAEi0MzOnf3zBv/PUCmaywJMwO7wlhhSXlgU6RDTyEWQiMA3SQgUQFFQASDQZhruqfBrRwImFRacBvWlHDwWKqAWZxuAizWFTfY4loKgAkknUDPsPcAtbVycQOPLVGjULni6lWmMXi90B/p5OLOEUFgESilsBbwI/AwGAMYEdBSTDSRqQg/l72AGYBH6EeAhKBVABIJKnHn1O4IwjiFO6yDduDlTrihMDv5QnAPMxZgeZBHouIbVQASCTIxNzOtXcRV9CPwlu6Pug3rYixdH1esIcA/1xEWje4wxGxTgWAhLNkYDJ/NvFJDO5w/hQiN62IEGLF1N4eAsuAO4GM4A5HxH8qACQcxQITMJ/4Q/JDeGdhKZt3FAZ7GGGvsKScdVt3B3sY+7O3+FwBXIl6CEgYUgEg4WTfadjHgZzgDufgvpysFIMAACAASURBVFq4OthDCHuzF63B6/MFexgHkwU8gHoISBhSASDhYhDwM2G0EOuLX1YFewhhb9b8lcEewuHa20NgIWaRKhLyVABIqOsBfIm5l7+z08kNw/+NBGF08wpZs+b7X0QZrqB8vLXGLFI/A7oEYwAih0sFgISqFsB0zGYs/ZxOnl6rPqfe+CyDxt7sd4wVG3ewavNOG0cVXbbuKmLBys1+X3/UGZdx5u2vkVUv18ZRHbaBwE/A60BQBiByKCoAJNTUxNzStxA4FYf38iem1mDwxHu47u1l9Bg2lubdBlmK9/rnC2waWfT576wFlt7/N+9+DJ2OO5Nrpi9hxA1Pk1bT8SUjBjAKWIL5eqC20wMQORj1upZQkQxMxFxZneZ08tiEJPqcdin9x1xHYmqNP37d66ni5oGZlJf4t6K/Wb0slr10paVXCdGqy8VTmbd8k1/Xutwx3Pb5TuKT/jzluaK0mG+nT+WLl+6htDAoOwuKMBev3gloi4gEnWYAJNj+fja7ozd/w+Wi/cCRXPPmbwyeeM9fbv5g3kgad+jtd/wVG3fww+/rrQ4z6ixeu83vmz9Ao3Y9/3LzB4hLTKb/Oddx/Tsr6X/OdcTEJVgdZnWlYParWAlcRgg0rJLopgJAgsUATgMWY06P1nE0uWHQbsAIrnlzMaPvnkaNnMYH/Nrm3a29Bnh25k+Wro9GVn/PmnU78BEQSWmZDJ54D9dOX0LXoeficjm+cy8beBizZfVwp5OL7KV5SQmGI4EpgP+P1hY0bn8kgyfeS5OOfQ7r63dvWcddwxrj8/N9dGyMm+UvX0Wj2iHXrygk7SgoofGZUygq9f8Y4Kv+u4g6Tdse1tduW/M7//f0LSya9Zbff8YW/Yg5M/BVMJJL9NIMgDhp7xapbwnCzb92bhtG3z2NS5779rBv/gAZdRrSqP2RfuetrPJw/7TZfl8fbR6Y/o2lm3/dFh0P++YPUKtxK0bfPY2Jz39P0y5BOf13362u7YMxAIlOKgDECQ2BlzCnPB1vkpJVvyln3v46V72+kPYD/Uvf+fizLI3h+Y9/ZstOrfs6lN1FZTz+7veWYnQ6bpRf1zVs24OLn5zF+Q99SE6zoNyHBwFzgWfRYUPiABUAEkh7T+lbCpyDw3/fkjNqMnjiPVz9xm90Om6UpcYw7QeOxB0T6/f1peWV3PTiZ35fHy1ufflzCkrK/b7eMAw6DDrd0hha9R7CFa/OZ/Td08iq39RSLD/EAGMxWwvfQwiecyGRQ32rJRASMQ9ImY75VOPoaueE5DQGnn8jZ935Bs26DsDltp4+LiGJTct+Ydua3/2O8cuKzRzbtTkNstMtjycSLVy1hbH3z7C0979Fj2PpfdpEy2MxDIPauW3odcrFJNfIZuOSeVSUFVuOWw2xQB/MYqASmAd4nByARD4VAGInF2bznncxp/od3Wfljomlx7CxnDNlBq16DyYmNs7W+Jl1m/Dje8/5fb0PmLNkAxcO6YbLpfW3+/L5fJxxxxus3rzLUpxTrn/S1qd2l9tNw7Y9OPLUCSSkpLF+8U9UVfg/Q+GHJOB44FygGPgF86+SiGUqAMQug4EZwCU4PG1puFx0OWE0Y6bMoPMJo4lPTAlInvRa9Vj+46fs3ur/vv5tu4tISYyjd9tGNo4s/D394Rwef+8HSzFymrVnyKQpAWm65I6No0mHPvQ46QI8VRVsXDofn9fRB/J04MQ9P1bt+SFiiQoAsaoz8CrwL6CW08lb9RnK6Lun0+uUi0hMDXzdkZhagwWfTbMU46sFqzmmS3Pq61UAYE79j7ztv1R5vJbiDJ00hbotOto0qv2LS0zmiF7H02XwaIp3b2fLqt/A2a2DOcBozF00vwJbnEwukUXzkOKvhpgtTc8kCItJzb3899Ck41GO5vV6Pdx/Wmvy1i2zFKdR7QzmP30pNVITbRpZeCoqraDr+KksXb/dUpyM2g24fsYK3Da/9jmUjUvn89HU61j246eO5t3DC/wXuAlYHYwBSHjTDIBUVwbwb8yn/s44XETWzm3DyMnPMmTSFGrUcX4a3TBcpGXXszwLkF9cxuK12zi9f/uoPSfA5/Nx3pS3+XKB9XvXydc8Rr2Wjp8WTVrNHLoMHk3j9r3ZuupXCnc4+kBuYPYNGA9kYW4hLHFyABLeVADI4YrDfL//FnAsDq/sz6jTkJOueIgRNzxF7SatnEz9D7WbtGLFT7PYvWWdpTjLNmxne34JQ3ocYdPIwsvk5z/hqQ9+tBynXsvODL96alALqaz6Telx8oXUbNiCjUvmUVbk6GFDbqAncBFQDsxBCwXlMKgAkEMxMFf2zwDOwlyV7Jik9CyOu/h2Rt36Mg1ad8MwQqN1RZ2mbZljYUfAXj8t3YDbZdCvQxMbRhU+HpnxHf96wZ5p87Nuf53MesH//TMMg5xm7ek1YjxJaZls+P1nKstLnRxCAnAc0At4G6hyMrmEHxUAcjBHAm9i7unPdDJxbEISR599NaPvnkazrv1t2ctvp/Tsemxfv5zNKxZZjvXFL6uolZFMt5b1bRhZ6Hvl0/mMf/g9Wx5R2/QbxoAx19sQyT4udwyN2vWi5/BxYBhsXDIXr8fRe3FToBVm222RA1IBIPvTHHgGuB9o4GRil8tNtxPPZ8yUGbQ9engwjmw9bE069uHnmS9RWWb9tevHc5YR43bRt33wn2QD6ZEZ3zH+4fcsNfvZKyElnfMf/ICElNDcTREbn0Dz7oPoOnQMpUX5bFm+0MnDhlphtt72v3OVRDwVALKvmpjtR18EDv80FZu06jOUMfe+TfdhY0lITnM6fbXFJSaTWbcJCz+fbku8WfNXsbOwhOO6tYi4hYE+n4/Jz3/Cv1741LaX0yOuf4rczv1sihY4CclptOk7jPYDRrBryzq2W9xBUg11Mb+XRfYrsj5lxF+JwGXA9ZgNRxzVoE13hl46JSw+zPfn1RvPYMGnb9oWb3ifNrx47QjSk0N39qM6ikoruOihd3j98wW2xWzVZyjnP/iBbfGctGr+18x87FrW/Wp9AeQheDF37egUKtkvFQDRzQWcDdyOua/fUTUbNOP48XfSfuDIsH7iLcnfwQOj2lGwfbNtMZvWzeTNm0bRpUU922IGw6LVWzjttv+yZF2ebTGT0rO46r+LSKuZY1tMp/l8PhbNepuPn5jM9vXLA5mqMzA/kAkkfOkVQPQaiLmlbzwOP/Un18hmyMR7Oe3mF8lpFv774GMTkmjYpgfz/veabe1hdxWW8tIn80lNiqd7y/ph93vk8/l4duZPnHrr67Yeg+xyuRlz3zvUbdHBtpjBYB421JpeIy4mNasOG3+fS0VpQA4begawrzKViBJenypih5bAbZiH9TgqNiGJPqddyoBzbwjZhVtWfP/2k8y4d4LtcTs3r8sTlw2jRytH12P6ben67Ux89H0+m7fC9thDL7uffmddZXvcYKsoLebb6VOZ9eJdlBUX2BXWh7l7x9GmBBI+NAMQPXKAh4BncXiBn8sdQ/dhFzDm3hm07R/aK/utaNC6GwXbNrJx6Txb427eWciL/5vHtt1F9GzdkMT4WFvj2yW/uIwbn/+EMfdOZ8WmHbbH73TcmZx42f22xw0Few8b6nbieVSUlbB5+QJ8XmtnI2AeIfyoDcOTCKUZgMiXiLmP/3ogMMfkHUSbvicxeOI91Goc3O59TqmqKOfZS49l1fyvAxI/NSme8Sf24MqRfahdw/E/zv3anl/MIzO+Y+q737O7qCwgORq06c74J78gNsHRPlRBk7duGR8/MZlfv5jh99bB3I59/73ql69vtXloEkFUAEQuA/OgnrtxeC8/QKO2PRkyaYrjh/WEgrLiAp65ZBDrF/8UsByJ8bFccEJXLhranbZNagcsz8EsWZfHszN/4pmZcygqrQhYnpxm7bn4qS9ISnO0F1VIWPvrD8x89FpW/zK7Wtc16zqAcVM/9bpcrpddVfzryiONjQEaooQxFQCR6UjM6f7uTieu2aA5J0y4i3YDRoTdwjU7leTv4Knx/W3pFHgonZrVZfQxnRg1oD11MlMDmitvdzFvfLGQVz+bz5wlGwKaCyC7YQvGP/M1qZnBKXJCxeLZH/DR1OvZunrxIb+2YdsejH3kYxJTa+z9pRIMHov3cNeknoZtCwwk/EXvJ3RkaoLZyGckDv/ZptSoxTEX3kKPky/EHROa76idVrhjC0+M6xvobV5/cBkGHZrmMKBTLgM6NaVv+yakJFo7HrekvJJvFq1h1vxVfD5/BfOXb8Zj/d30YamR05gJz3xNRu3wWPwYaF6vh58//A+zXryLHRtX/eO/xyelctSoyxl43uQDrbPZbsAdDdcw9bTTDHu2q0hYUwEQGdKAyZjNfBxdYRebkETfUVfQf8x1xCcF9ukzHBXu2MLzVwxh4xJ7FwYeDrfLReM6GbSoX5OWDbNpUb8mWWlJZKQkkpIYR0piHAYGRaUVFJWVs6uwlF2FpSzbsJ0l6/NYun47a7bsosrjzA1/X7Vz2zD2kY91898Pn9fLqvlfsXbRD5QV5RMTF0+dpu04otfxxCcdxroQg999Xq69tofx4SG+MgE4GRiC2R48BlgDzMI8DlyzCWFOBUB429vI516gjpOJDcOg3YBTGTppCjVyGjuZOuxUlBbzyg0jWfLdx8EeSlho1LYn5z/0IUnpWcEeSqT7zOXj6qt6GPtr0TgIs4fAgQ6nyMdcX/Qw5hHEEoZUAISvgcCDQHunEzfvNpAhk+6j3hGdnE4dtryeKmbcM54fbThCOJK17XcyZ97xOrHxicEeSrTw+OB54JZruxtb9vzaGcArmE/8h7IKuAbzuHAJMyoAwk8rzFP6BjuduHZuG4ZeOoWWvR1PHRF8Ph9fvXo/Hz8x2enjYUOey+Vm0AU3MeiCmzBcrmAPJxoVYzD1sdFdpq9bMm825vbh6vgSuAL4xfaRScCoAAgfmcC1mN9k1lZ2VVNyRk0Gnv8veo+8BJf7cB4K5GDWL/6JVyefzs5Nq4M9lJCQXCObUbe+whE9jwv2UKLeMxOPKVs+5zN/1xF5gdcwP6e2HOJrJQSoAAh9ccAk4EbMk72cS5yYTL+zrqLf2dcc3uIiOWwl+Tt4499j+P3bmcEeSlA17zaQUbe9SmqWo0tYZD92b13PXSc18rvx0D4KgDuBR9D6gJCmAiC0nYi5n7+pk0kNl4t2/UcwdNJ91Mhp5GTqqLPw8+nMmHIJxbvsOy0vHCSkpHPsuFvpfdpEXC51JA8FCz59k1dvPMPOkCsx1we8Y2dQsY/mc0NTZ8wFfv2cTty8+yCGTrqPui06Op06KrUfOJJm3Qby8eM38OO7z9rx9BXyWvUZyinXPaEtfiGmYIfts/ZNMRcHfonWB4QkFQChpR5wF+bWPkdXQuU0a8eQSffpPWwQJKVlMuKGp2k34FQ+fORqNq9YGOwhBUStxi0ZcukUWh91YrCHIvsRG7hDuo4GfgZeAP4FbAtUIqkevQIIDQmYU2XXAclOJk7LrstxF91G16Hnaio2BPi8XhZ8No1Pnv03eWuXBns4tsiql8sxF95Cp+PP0t+xELZm4Xc8PrZ3oNPk8+f6gMAdICGHRQVA8A0HHuDADTcCIj4phX5nX0O/s64iLtHRmkMOg9dTxdyPXuGLl+4hb92yYA/HL1n1cjl69LV0O+l8tYcOAz6vl7uGNWb31vVOpFsH3AS87EQy2T8VAMHTArOL1glOJjVcLjoffxaDJ95LWs0cJ1OLn1b/8g3fvPkov375Tsj3DzBcLpp1HUDP4eNo2/8UPfGHmW+nTeXd+y91MuUszPUBkfneK8SpAHBeOnALMBFw9LGoRY9jOfHyB6jTtK2TacUmu7euZ857z7Hgs+lsW/N7sIfzFzUbNKP9wJF0HzaWrHq5wR6O+Mnn9fL8FUNY+v3/nEzrwexGeBNaH+AoFQDOMYDRwBTA0bNNsxu24Pjxd9B+4Egn00oA7di4isWzP2Dh59NZu/C7oOweqN2kNe0HjaT1USdSv2UXx/NLYFSWlfD6zWfz65eO797LB+4AHkXrAxyhAsAZXTH/UvdyMmliag36j7mOvqOuwB3raPNAcVBZcQHrf5vD6gXfsOH3uaxZ8A2lhbttzeGOiSWnWXsad+hNk459aNKpL6mZjtax4rC5H73CR49fT0HeJqdTrwCuBt5zOnG0UQEQWDmYJ2adg4O/1+6YWI48dQKDxt5MUlqmU2klRHg9VezYuIodG1ayc+Mqdmxcxc6NqyjatY3K8lLKivKpKCuhsrwUfD5i4xOJS0wmISWdmLgEUjJrkVUvl8y6uebP9XLJqt9UC/miUGVZCd9Me4zPX7iD8pIip9N/gfmqdLHTiaOFCoDAiAUmALcBaU4mbt59EMOufJjauW2cTCsiESw/byOfPXcbP773HD6v18nUlcCTmP0DCp1MHA1UANhvIOYeV0fvwLUat+LEy+7XSX0iEjDrF//EBw9fyepfvnE69SbgBrRt0FYqAOzTFHO639GVdknpWQy64Cb1VBcRR/h8PhbNeouZj10XjBMtv8R8LfCb04kjkQoA65Iwj7+8DrOjnyPcMbH0GjGe4y66jYSUdKfSiogAUFleyjdvPsqsF++irLjA0dSYrwVuwjx5UPykAsCaE4GpQEMnk7bqM5RhVz5MVn1HDwkUEfmHgrxNfPrcrcx573m8Xo+TqTcD1wOvAJF/ilYAqADwTyfM9/xHOZm0XsvOnHTFQ+R26utkWhGRQ9q4ZB7vP3QFq+Z/7XTqr4BLgUVOJw53KgCqpwbmQRbjAMdeuKdl1+WECXfR5YTRGC5HDwkUEamWhZ+/xczHrnV6fUAl8BhwK3otcNhUABy+kZh/wRzrfhIbn0if0ycx8PwbiU9KdSqtiIglnsoKvnv7ST55+man1wdswVyPpdcCh0EFwKG1AR4H+jmV0DAMOh47isET7yGjdgOn0oqI2Grv+oAg9A+YjblbQIcMHYQKgAPbu7r/BsCxPrp1W3Tk5KsfpUlHR5cXiIgEzIbff+bd+yexdtH3TqatAl4AJgM7nEwcLlQA7N+JmNP9jZxKmJhag2MuvEX7+UUkIvm8Xn6e+RIfPzGZwh1bnEy9FbgGeBW9FvgLFQB/1QTzxj/EqYSGy0Xn48/ixMseILlGtlNpRUSCoqK0mC9fvY8vXrqHqopyJ1N/DVwELHEyaShTAWCKBa4CbgYSnUrapGMfTr76Meq26OhUShGRkLB9/Qo+fmIyCz+f7mTaSuBB4BbA0eojFKkAgI7As5hH9joirWYOgyfeQ+cTRmMY+iMQkei1/KfPef/By9my8ldH0wLjgc+dTBpqovllcxJwO/AfoL4TCd0xsfQeOZFzpsygYZvuuvmLSNTLqpdLj5MvJCElnbWLvsdTWeFIWmA05mf/N0CZE0lDTbTegY7H7CXd2KmEzbsNZNjVj1K7SWunUoqIhJWC7ZuZ+eg1zP+/1/H5HFuvtw24DHjDqYShItoKgBrAPZid/ByRVb8pgy+5m/YDHT0kUEQkbK3+ZTbvTJnI5hWObuP/CHOR4AYnkwZTNBUAozEXf9R0IllcYjIDzp1Mv7OuIiYu3omUIiIRw+f1Mu9/r/L+Q1dSku/YNv58zP4vzxIFWwajoQCoDTwFnOxUwlZ9hjL8mqnUyHGsjYCISEQqKdjJp8/eyrfTpzrZTfATzJnitU4lDIZILwBGAk/g0FN/rcYtGXbVI7TocawT6UREosbaRd/zzn0T2bhknlMpCzGPG36SCJ0NiNQCoCbmjd+RF+8JKekcf/Ht9BoxHpc7xomUIiJRx+f18sM7T/PxEzdSWrjLqbSfAecRgWsDInEb4GDMxRw9nUjWqs9Qxj78Ec27H6OjekVEAsgwDBq07kaP4RdSVribjUsdmQ3IBS4AdgJznUjolEiaAUjDbON7jhPJshu2YPi1j9O8+yAn0omIyN+smv81M+6dwNZVvzmVcjpmA6GIOFwoUgqATsA0oFmgE8XEJdB/zHUMGHM9MXEJgU4nIiIH4ams4MtX7+PzF+6ksrzUiZQbgHOJgC6CkVAAnIO5yj/gPfybdunPKdc9Qa3GLQOdSkREqmHnptW8c99Elnz7kRPpfMAU4EbA40TCQAjnAiANc6/maQFPlF2XYVc+rGY+IiIhbtGst3nvgcvIz9voRLpPgLOBPCeS2S1cCwBHpvwNw6DH8HEMmXgvCSnpgUwlIiI2KSsu4OPHb+D7GU850TtgA3AG8G2gE9ktHAuA4cCrmIf5BExW/aacOvkZmnUdEMg0IiISIGsWfsdbd41zYpFgBXAh8HKgE9kp3LYBXgY8D8QFKoHLHcPRo69h9N3TqNmgeaDSiIhIgGXUbkCPky8kLjGZ1b/MxusJ2Ot6N2a32UTCaHFguMwAGJh9/C8PZJKGbXtw6uRnyWnWLpBpRETEYVtXL+atu8axZkHAZ+qfBS4GHOtb7K9wmAEwMPf3TwpUgtiEJIZOuo8RNzxNWladQKUREZEgSamRTbeh55KUnsWq+V/jraoMVKouQCPgQ0K8hXCozwAYmH2YLwpUgsbtj+T0W/6j6X4RkSixY8NK3rztPFb/MjuQaV7D3KYesjMBoT4DMIUAPfm7Y2IZdMFNnH7Lf0jOcOSsIBERCQFJaZl0HXouadl1WTXvSzyVFYFI0x6ogzkTEJJCuQCYCNwRiMA5zdpxwcMf0fHYMzAM9e8XEYk2hmFQv1UX2g88jY1L57F76/pApOmK+Rrgq0AEtypUC4DTMVf72/qKwuWOYdAF/2LUba+Rnl3PztAiIhKGktIz6Tp0DO6YWFbPn43PZ/uMfX9gHfCL3YGtCsU1AB0xGyrYus8/vVZ9zr7zDRp36G1nWBERiRDrF//E6zedxfb1y+0OXQkMAr62O7AVoVYAZAE/AU3sDNq820BG3f4aqZm17QwrIiIRprykiHemXMLcj2zv6bMF6IbZOTAkhNIrABfwPtDZtoDuGE6YcCcjbnia+KQUu8KKiEiEiomNo+3Rw0nPrseyHz/F66myK3QK0AuzW2BI7AwIpQJgMjDWrmBpNXM4/6GZdDr+TAwj1CY6REQklNVv2YVWRw5myff/o6wo366wDYBYQqRbYKjcGXsAszF/YyyrnduGCx6aSY2cRnaEExGRKFWwfTPPXz6YTctsW8PnBY4HPrUroL9CoQBIARZi03v/pl2OZsyUd0hMzbAjnIiIRLnSwt385+phrJpv2xq+zUAbYJddAf0RCq8AHgKOtSNQk459OP+hmSSkpNkRTkREhNj4BDodN4otK38lb+1SO0KmArWB9+wI5q9gFwBHA1OxYSYit1Nfxj7ysRb7iYiI7VzuGNr1P4V1v/3Ijo2r7AjZEbM3gC0VhT+C+QogBvN/vo3VQLWbtOaS577VtL+IiARUWXEBT43vz8Yl8+wItx5oCZTYEay6gtkHdxI23PzTsusy9pGPdfMXEZGAS0hO44KHZpJVv6kd4RoAV9kRyB/BmgHIBpYBlu7aMXHxTHhmNg1ad7NnVCIiIochb+1SHhnTjfKSQquhSjFnAdZZH1X1BGsNwINAH6tBhl/zOG36nmTDcERERA5fckZNMus2YdGst62GigVqATOsj6p6glEAdACexuLrh87Hn8UJE+6yZ0QiIiLVVKdpWwq3b2bDkrlWQ7UDZuHwLEAwXgF8gbn632/ptepz1X8Xkphaw54RiYiI+KGqoozHzuvJpuULrIb6CeiJg22CnV4EOBSLN3/D5WLUra/o5i8iIkEXE5fAaTe/iMsdYzVUN+B0G4Z02Jx+BfAyUN9KgN4jJ3LkqeNtGo6IiIg1aTVzqKooY/Uv31gN1Rp4EvBZH9WhOTkDcCxmz3+/pdXM4biLbrNpOCIiIvY4Zuwt1G7S2mqYVsAwG4ZzWJwsAG60GmDYVY9qv7+IiIScmLh4Trn+STtOn/0XDq3Pc6oAOBLoayVAk459aD/wVJuGIyIiYq/cTn1pN2CE1TCdMU8LDDinCoBbrAYYfMk9doxDREQkYIZcOoWYuHirYW62YyyH4kQB0A2Lp/217XcyjTv0tmk4IiIigZFZtwm9R060GqYnFnfMHQ4nCoBLrVzscrk5fsKddo1FREQkoAaefyNJaZlWw0yyYywHE+gCIAsYaSVA92EX2LGyUkRExBGJqTXoc7rl+/eJQD0bhnNAgS4AzgUS/L3YHRvHoLGOvAoRERGxzVGjLre6ay0GGGvTcPYrkAWAAYyzEqDz8WeRnh3QAkhERMR2CSnp9Dp1gtUwF2EeFhQQgSwABgEtrAToc8ZlNg1FRETEWX1HXUFcYrKVEDmYLfQDIpAFwMVWLm555AnUbd7BrrGIiIg4KjmjJl2HjLEaxtK99GACVQDUBk6yEqDvWVfZNBQREZHg6H3aRKvdAY8Bmtg0nL8IVAFwOuYCBr/kNGtPs64DbByOiIiI82o1bkWzbgOthDCAM2wazl8EsgDwW58zJtnRT1lERCToep9mqR0OwCg7xvF3gSgAGgG9/L04LjGZDoNOs3E4IiIiwdOqzxAy6jS0EqId0Nam4fwhEAXAmVg4yajDMacTn5Rq43BERESCx+Vy0+WE0VbD2P4aIBAFgKWpim5Dz7NrHCIiIiGh69Bzrb7aHoXNxwTbXQC0wpyq8Et2wxY69EdERCJOzQbNrN7fcjEP17ON3QXAqVYu7nbieVr8JyIiEanr0HOthhhhwzD+YHcBYKljUXst/hMRkQjVrv8I3LFxVkIMsWssYG8BUAvo6u/FDVp3I6tero3DERERCR2JqRk0t9YToA3Q1Kbh2FoADLESr/1AS28PREREQl77gSOthhhsxzjA/gLAb+362/pqQ0REJOS0PXp4yLwGsKsAiMU8/c8v9Vp2Jqu+bbMaIiIiISkxNYPcTn2thDgaSLFjLHYVAH2AdH8vbnv0cJuGISIiEtpa9bG0Xj4esLSQmAER2AAABOZJREFUYC+7CgBLg2l55Ak2DUNERCS0tT7qRKsh+tsxDrsKAL8Hk1wjm3otOtk0DBERkdCWVS+XWo1bWgkRMgVAEha2/7XsdQKGK1CHEoqIiISelkdaWszfDqhpdQx23HmPAvxe0nhEr+NsGIKIiEj4aNrlaCuXG0A/q2OwowDweyrCcLlo0eNYG4YgIiISPnI79cXlclsJYfk1gB0FwNH+XpjTtB3JGZZnMURERMJKQko6dVt0tBIi6AVAIuD3Cr7czpZnMERERMKSxXtgK6CGlQBWC4DOWHj/b7EZgoiISNiyWAAYWDwe2GoB0NPfCw3DoEmnoyymFxERCU9NO/ezug7A73swWC8Aevh7Ya3GrUipUctiehERkfCUkJJOTosOVkL4fQ8G6wVAd38v1NO/iIhEu6adj7ZyeQ/MVwF+sVIA1AEa+Xtxw9Z+1w4iIiIRoWFbSw/xWYDfJ+lZKQAs9e9t0EYFgIiIRLf6LbtYDeH3XkIrBYDfLy5iE5Ks9kEWEREJe5n1cklMtbSbz+97cUwwkmY378K6EiupRUREIoFBZtOObPzlC38DhFcBUKN5V4orLWQWERGJEDWadQlKAeDvK4BEoIW/SWs0ae/vpSIiIhEls1lnK5c3xM+OgP4WAC0Bv7sXZDRs7e+lIiIiEaVmc8sLAf26qVopAPxjGKQ3bOX35SIiIpEktW4zYhNTrITw66bqeAGQnN2A2MRUfy8XERGJKIbhIr2BpZ1xfl3seAGQ0aiNv5eKiIhEpPT64VMAHOHndWQ00PS/iIjIviy+Gnf0FUATP68jo5EWAIqIiOwrvb7fz9Vg7gSo9rZ+fwqATCDNj+sA7QAQERH5O4szADFAXX8uqi6/DwACcMclULh5lZUQso+YhGQSa9R2NKenopTS3dvweTyO5hURiVSG4cIwXPh8Xn9DNAbWVecCxwuA9y+x1PBA9sMdl0BOhwEcMXQ8DXoMDUiOsvw8fnv7AdbMnq4CTkQk9FT73uxPAdDYj2skgDwVZWz46SM2/PQRDXqeRN9rXyE2ye+3NP+w7rt3mX3/GCpLCmyLKSIitmpc3Qv8WQNgaQZAAmv9D+/zyeTj8FSU2RJv7bcz+OL2Ebr5i4iEtmrfm1UARKC8JT8w76V/WY5TsmMT39w/xso7KRERcYYjBUCOH9eIw5a8P5XSnZstxVg07R4qS4tsGpGIiARQte/N/hQA2X5cIw7zVJaz7vv3/L7e5/Oy5uvpNo5IREQCqNrbwVQARLCdK3/x+9qyXVsp3bXFxtGIiEgAZVLNhf3+7ALw5xoJgtItK7ZkxDPfn2vLdq9LAY6yeUgiIhIYLsCozgXV+uI9NuJHxyEJiieAS/y8NhvYZuNYREQkcAqpZpdef14BfOfHNRIcP1i4Ng9Qxx8RkfDwbXUv8KcAeMmPa8R5BcCHFmO8bsdAREQk4F6u7gX+FAAzgS/9uE6cdRewy2KMB4CtNoxFREQC5ydgWnUv8mcNAJj7Db9DbYFD1XvAKYAdHXz6AJ8AiTbEEhERe20CegNrqnuhPzMAAJuBXmgmINR4gUeAkdhz8wf4BjgaWG1TPBERscf3QE/8uPmD/zMA+zoRGI1ZENRB2wSdVop5BORnwNPAogDliQfOA04F2mA2nbDj74+IiBweD7AFmAO8BswAfP4G+3/plDsP4XzWEAAAAABJRU5ErkJggg==;" vertex="1" parent="1">
          <mxGeometry x="469" y="81" width="150" height="150" as="geometry" />
        </mxCell>
        <mxCell id="hTkhz982k4hAJJfi6Dwt-8" value="" style="endArrow=classic;html=1;rounded=0;fontSize=12;startSize=8;endSize=8;curved=1;strokeColor=#10739e;exitX=1;exitY=0;exitDx=0;exitDy=0;strokeWidth=2;fontColor=#FFFFFF;fillColor=#b1ddf0;entryX=0;entryY=0.027;entryDx=0;entryDy=0;entryPerimeter=0;" edge="1" parent="1">
          <mxGeometry width="50" height="50" relative="1" as="geometry">
            <mxPoint x="27.999090909090455" y="98.99636363636387" as="sourcePoint" />
            <mxPoint x="469" y="99.04999999999995" as="targetPoint" />
          </mxGeometry>
        </mxCell>
        <mxCell id="hTkhz982k4hAJJfi6Dwt-9" value="" style="endArrow=classic;html=1;rounded=0;fontSize=12;startSize=8;endSize=8;curved=1;strokeColor=#10739e;exitX=0;exitY=0.5;exitDx=0;exitDy=0;entryX=1;entryY=0.5;entryDx=0;entryDy=0;strokeWidth=2;fillColor=#b1ddf0;" edge="1" parent="1">
          <mxGeometry width="50" height="50" relative="1" as="geometry">
            <mxPoint x="469" y="165" as="sourcePoint" />
            <mxPoint x="25.999090909090455" y="164.99636363636387" as="targetPoint" />
          </mxGeometry>
        </mxCell>
        <mxCell id="hTkhz982k4hAJJfi6Dwt-10" value="" style="endArrow=classic;html=1;rounded=0;fontSize=12;curved=1;strokeColor=#10739e;exitX=1;exitY=1;exitDx=0;exitDy=0;entryX=0;entryY=1;entryDx=0;entryDy=0;strokeWidth=2;fillColor=#b1ddf0;" edge="1" parent="1" source="hTkhz982k4hAJJfi6Dwt-6" target="hTkhz982k4hAJJfi6Dwt-7">
          <mxGeometry width="50" height="50" relative="1" as="geometry">
            <mxPoint x="479" y="166" as="sourcePoint" />
            <mxPoint x="36" y="166" as="targetPoint" />
          </mxGeometry>
        </mxCell>
        <mxCell id="hTkhz982k4hAJJfi6Dwt-12" value="ALICE" style="text;html=1;strokeColor=none;fillColor=none;align=center;verticalAlign=middle;whiteSpace=wrap;rounded=0;fontSize=16;fontColor=#FFFFFF;" vertex="1" parent="1">
          <mxGeometry x="-73" y="234" width="60" height="30" as="geometry" />
        </mxCell>
        <mxCell id="hTkhz982k4hAJJfi6Dwt-13" value="BOB" style="text;html=1;strokeColor=none;fillColor=none;align=center;verticalAlign=middle;whiteSpace=wrap;rounded=0;fontSize=16;fontColor=#FFFFFF;" vertex="1" parent="1">
          <mxGeometry x="510" y="234" width="60" height="30" as="geometry" />
        </mxCell>
      </root>
    </mxGraphModel>
  </diagram>
</mxfile>
